<?xml version="1.0" standalone="no"?>
<!DOCTYPE svg PUBLIC "-//W3C//DTD SVG 20010904//EN"
 "http://www.w3.org/TR/2001/REC-SVG-20010904/DTD/svg10.dtd">
<svg version="1.0" xmlns="http://www.w3.org/2000/svg"
 width="1284.000000pt" height="1712.000000pt" viewBox="0 0 1284.000000 1712.000000"
 preserveAspectRatio="xMidYMid meet">

<g transform="translate(0.000000,1712.000000) scale(0.100000,-0.100000)"
fill="#000000" stroke="none">
<path d="M0 8560 l0 -8560 6420 0 6420 0 0 1670 c0 1624 -1 1670 -19 1670 -35
0 -59 33 -71 95 -10 56 -9 61 11 78 32 26 62 18 71 -18 3 -16 5 130 3 325 -4
430 -4 428 -16 435 -5 4 -9 16 -9 28 1 22 1 22 15 3 13 -18 15 46 15 542 l0
562 -37 0 c-47 0 -85 36 -79 72 3 12 5 26 5 31 1 4 26 7 56 7 44 0 55 3 55 16
0 13 -10 15 -58 12 -45 -2 -57 0 -57 12 0 11 14 16 58 18 l57 3 0 5779 0 5780
-6420 0 -6420 0 0 -8560z m4759 1204 c-14 -17 -9 -17 28 -4 27 10 27 9 8 -6
-11 -8 -28 -20 -37 -25 -15 -8 -17 -6 -14 13 3 13 5 29 5 36 1 7 6 10 11 7 8
-5 7 -11 -1 -21z m-80 -117 c1 -27 -4 -39 -16 -44 -10 -4 -28 -17 -41 -31 -34
-36 -46 -24 -44 44 3 80 13 125 21 101 6 -17 8 -17 34 3 15 12 28 29 28 38 2
26 17 -68 18 -111z m210 104 l-22 -18 49 -7 c27 -4 59 -8 71 -9 22 -2 36 -39
30 -80 -4 -20 -23 -19 -21 1 1 6 -2 12 -6 12 -5 0 -17 3 -27 6 -15 5 -15 4 -3
-5 17 -12 9 -24 -12 -16 -11 4 -14 16 -11 41 4 40 2 40 -57 11 -41 -20 -45
-25 -44 -57 1 -19 5 -43 9 -52 10 -25 -18 -23 -73 3 l-44 22 7 51 c3 28 9 52
13 54 58 24 149 60 156 61 4 1 -2 -7 -15 -18z m3809 2 c15 -3 37 -13 50 -21
12 -8 31 -12 42 -9 11 3 17 1 14 -4 -3 -5 11 -16 30 -24 20 -9 36 -20 36 -25
0 -5 -32 6 -72 25 -73 35 -98 42 -98 26 0 -11 134 -71 160 -71 12 0 20 7 21
18 1 16 2 15 6 -1 8 -30 47 -17 54 18 5 30 5 29 12 -10 4 -22 8 -60 9 -84 l2
-45 -73 -24 c-40 -13 -76 -20 -80 -16 -3 5 -18 15 -33 21 -24 11 -28 18 -28
56 0 39 -3 45 -32 58 -30 14 -34 14 -50 -3 -15 -15 -15 -18 -3 -18 22 0 18
-27 -5 -40 -19 -10 -20 -8 -20 81 0 82 2 91 18 85 14 -5 13 -3 -3 10 -18 15
-18 16 -2 10 11 -3 31 -9 45 -13z m-4328 -27 c0 -2 -7 -7 -16 -10 -8 -3 -12
-2 -9 4 6 10 25 14 25 6z m4228 -117 c-11 -7 -55 12 -120 51 l-31 19 34 -1
c19 -1 37 -6 41 -11 4 -7 12 -6 23 3 13 10 13 15 3 21 -9 6 -7 9 8 9 12 0 25
8 30 18 5 12 10 -1 15 -42 6 -43 5 -62 -3 -67z m-4188 74 c0 -19 -3 -24 -10
-17 -6 6 -8 18 -4 27 9 24 14 21 14 -10z m4117 11 c-3 -3 -12 -4 -19 -1 -8 3
-5 6 6 6 11 1 17 -2 13 -5z m-3425 -28 c7 4 10 4 6 -1 -11 -12 19 -36 49 -40
16 -2 30 -4 33 -5 3 0 -2 -5 -11 -10 -11 -6 -37 -6 -73 1 -51 11 -56 14 -56
39 0 35 11 45 27 25 7 -10 17 -14 25 -9z m3957 -68 c1 -24 -4 -38 -11 -38 -8
0 -5 -7 6 -15 11 -8 17 -18 13 -21 -4 -4 -13 -2 -20 5 -19 15 -31 142 -14 153
14 9 24 -24 26 -84z m-4669 -38 c-8 -5 -19 -10 -25 -10 -5 0 -3 5 5 10 8 5 20
10 25 10 6 0 3 -5 -5 -10z m4495 -59 c-3 -6 4 -15 16 -21 31 -17 15 -24 -25
-10 -41 13 -46 27 -13 33 12 2 23 5 25 6 2 0 1 -3 -3 -8z m-2935 -108 c0 -21
-9 -18 -177 58 -84 38 -41 35 67 -4 65 -24 110 -46 110 -54z m346 59 c-6 -6
-56 10 -56 18 0 5 13 3 30 -3 16 -6 28 -13 26 -15z m-3170 -24 c4 -7 3 -8 -4
-4 -8 4 -10 2 -6 -8 3 -8 12 -12 20 -9 24 9 15 -13 -11 -27 -31 -16 -34 -13
-28 28 5 33 16 41 29 20z m3219 2 c13 -6 15 -9 5 -9 -8 0 -22 4 -30 9 -18 12
-2 12 25 0z m-70 -20 c-3 -5 -10 -10 -16 -10 -5 0 -9 5 -9 10 0 6 7 10 16 10
8 0 12 -4 9 -10z m-175 -54 c103 -39 103 -39 98 -59 -4 -20 -202 54 -206 77
-5 22 2 21 108 -18z m-3206 -43 c-8 -132 -20 -222 -30 -232 -2 -2 -4 14 -4 37
0 36 -3 42 -25 48 -14 3 -41 4 -60 2 -41 -5 -49 16 -10 26 29 7 24 26 -6 26
-14 0 -19 7 -19 28 0 59 11 73 74 102 34 16 66 29 72 29 8 1 10 -20 8 -66z
m3931 59 c-6 -5 -32 -16 -60 -24 -27 -9 -74 -25 -102 -37 -29 -11 -53 -19 -53
-16 0 3 -1 8 -2 11 -2 4 44 21 102 39 115 36 129 39 115 27z m246 -28 c35 -14
75 -30 88 -35 13 -5 22 -12 19 -14 -4 -5 -166 59 -176 70 -10 9 3 5 69 -21z
m-3922 -91 c-1 -71 -7 -117 -17 -133 -15 -26 -49 -60 -61 -60 -8 0 -5 50 10
181 9 83 14 98 32 107 12 6 26 11 30 11 5 1 8 -47 6 -106z m142 68 c27 -6 74
-24 105 -41 31 -16 66 -30 78 -30 16 -1 13 -5 -15 -20 -36 -19 -36 -19 -43
-102 -4 -45 -8 -84 -10 -86 -2 -2 -21 4 -41 12 -34 15 -37 19 -31 46 5 26 2
32 -20 40 -14 6 -43 10 -65 10 -32 0 -41 4 -48 23 -5 12 -5 27 -1 32 4 6 11
30 14 55 12 77 19 106 23 88 3 -11 21 -20 54 -27z m2269 5 c0 -28 -4 -34 -25
-38 -14 -3 -28 -1 -31 3 -3 5 1 9 9 9 8 0 17 10 20 23 5 20 5 20 -7 5 -8 -11
-20 -15 -36 -11 -21 6 -19 8 21 24 24 10 45 18 47 18 1 1 2 -14 2 -33z m318
-16 l72 -24 0 -209 c0 -163 -3 -208 -12 -204 -7 2 -59 19 -115 38 -79 26 -103
37 -103 51 0 13 13 21 48 30 l47 12 -34 7 c-19 4 -40 5 -48 2 -10 -4 -13 11
-13 66 0 67 1 71 23 71 12 0 29 5 37 10 13 8 12 10 -5 11 -11 1 -28 2 -37 1
-15 -2 -18 7 -18 51 0 76 8 97 36 97 13 0 24 5 24 11 0 12 1 12 98 -21z m197
-8 c-6 -7 -75 19 -75 28 0 5 18 1 39 -8 22 -9 38 -19 36 -20z m-630 -2 c3 -6
-1 -7 -9 -4 -18 7 -21 14 -7 14 6 0 13 -4 16 -10z m701 -28 c-10 -2 -26 3 -35
12 -15 15 -13 16 19 4 26 -9 30 -13 16 -16z m161 4 c31 -12 53 -27 56 -38 5
-18 -4 -24 -17 -10 -4 4 -28 14 -54 23 -29 10 -48 23 -50 34 -2 9 0 16 5 14 5
-2 32 -13 60 -23z m253 11 c0 -7 -25 -21 -55 -31 -54 -17 -81 -36 -50 -36 30
0 104 -45 109 -67 7 -26 -2 -55 -15 -47 -5 3 -17 0 -26 -5 -15 -9 -12 -10 15
-11 l33 0 -2 -160 -1 -160 -41 -11 c-84 -23 -97 -22 -98 3 0 13 -3 34 -6 48
-10 48 -4 433 8 444 2 2 31 12 64 23 33 11 61 21 63 22 1 0 2 -5 2 -12z
m-3880 -42 c0 -40 -3 -47 -25 -55 -49 -19 -75 -22 -75 -11 0 6 7 11 15 11 8 0
15 7 15 15 0 10 -10 15 -26 15 -21 0 -25 -4 -21 -19 2 -10 0 -25 -5 -32 -6 -9
-8 -1 -6 25 3 37 7 42 58 67 30 16 58 28 63 29 4 0 7 -20 7 -45z m4204 -17 c3
-29 7 -129 8 -221 2 -150 0 -170 -15 -178 -21 -12 -22 -38 -2 -45 8 -4 15 -13
15 -21 0 -10 -6 -13 -16 -9 -9 3 -20 6 -26 6 -6 0 -9 19 -6 45 2 25 0 45 -4
45 -3 0 -5 8 -3 18 2 9 4 34 4 54 1 30 5 37 24 40 21 4 21 5 -5 18 -20 9 -37
10 -60 4 l-33 -10 4 -68 c3 -68 3 -68 -20 -60 -30 10 -74 10 -116 0 l-33 -8 0
59 0 58 60 18 c33 9 60 21 60 27 0 8 -55 -5 -102 -25 -16 -6 -18 0 -18 62 l0
69 48 13 c104 29 114 33 103 44 -7 7 -28 3 -69 -11 -78 -29 -84 -28 -80 10 3
28 8 33 58 50 55 20 199 65 211 67 4 1 9 -23 13 -51z m304 -86 c2 -23 1 -42
-2 -42 -2 0 -39 14 -81 31 -42 16 -84 28 -93 26 -15 -3 -14 -5 3 -11 11 -4 54
-20 95 -35 l75 -28 5 -150 5 -150 -80 25 c-44 14 -98 30 -120 37 l-40 12 -3
210 -2 210 117 -47 118 -46 3 -42z m97 117 c25 -11 45 -22 43 -24 -6 -6 -98
29 -98 37 0 11 2 11 55 -13z m-1983 -111 c-1 -4 -10 -4 -18 -1 -13 5 -13 7 -2
14 19 13 -8 29 -49 29 -22 0 -33 5 -33 14 0 8 -6 17 -12 20 -15 7 36 0 76 -10
24 -6 26 -4 28 27 1 20 4 9 7 -26 4 -33 5 -63 3 -67z m72 94 c-3 -9 -1 -28 5
-42 5 -14 10 -19 10 -12 1 8 9 10 27 6 14 -4 29 -3 33 2 3 5 24 17 46 28 35
16 38 19 20 26 -18 7 -19 8 -2 15 41 17 47 2 46 -127 0 -174 -4 -195 -41 -203
-16 -4 -61 -17 -99 -30 l-69 -22 1 31 c1 18 3 23 6 13 3 -11 10 -16 20 -13 8
3 24 6 36 7 17 0 14 4 -13 14 -19 7 -30 14 -23 14 6 1 20 4 30 7 15 5 15 4 3
-5 -13 -9 -13 -11 2 -11 9 0 20 5 23 10 4 6 11 8 16 5 5 -4 18 -4 28 0 15 5
18 14 16 53 -3 44 -6 47 -29 45 -23 -2 -26 2 -26 33 0 26 -4 34 -18 34 -10 0
-23 5 -30 12 -9 9 -12 9 -12 0 0 -7 -7 -12 -15 -12 -11 0 -15 12 -15 44 0 56
10 107 20 101 5 -3 6 -13 4 -23z m716 -7 c49 -19 94 -35 100 -35 5 0 11 -10
11 -22 1 -21 -2 -286 -5 -353 -1 -32 -8 -34 -66 -21 -19 5 -17 2 8 -9 23 -11
32 -22 32 -40 0 -14 6 -25 13 -25 9 0 9 -2 -1 -8 -7 -5 -50 4 -102 22 -67 22
-90 34 -90 47 0 12 6 16 19 12 12 -3 17 -11 14 -19 -3 -8 1 -14 10 -14 9 0 22
-3 31 -6 12 -5 16 0 16 20 0 14 5 26 12 26 6 0 8 3 5 6 -4 4 -13 1 -21 -5 -12
-10 -22 -10 -51 0 l-35 13 0 223 c0 123 2 223 5 223 3 0 46 -16 95 -35z m100
20 c0 -8 -2 -15 -4 -15 -2 0 -6 7 -10 15 -3 8 -1 15 4 15 6 0 10 -7 10 -15z
m1280 -4 c-8 -5 -26 -11 -40 -15 -21 -5 -20 -3 5 9 32 15 60 20 35 6z m-2190
-10 c0 -5 -9 -7 -20 -4 -11 3 -20 7 -20 9 0 2 9 4 20 4 11 0 20 -4 20 -9z
m978 -18 c-2 -9 3 -18 10 -20 6 -3 12 2 12 10 0 12 7 13 40 5 33 -9 40 -15 40
-34 0 -13 -4 -24 -10 -24 -5 0 -10 7 -10 15 0 11 -12 15 -47 14 l-48 -1 40
-19 c22 -10 47 -19 56 -19 9 0 24 -9 33 -19 16 -18 17 -35 9 -203 -6 -149 -9
-170 -14 -113 l-5 70 -2 -73 c-2 -80 3 -76 -77 -57 -21 5 -27 4 -20 -3 6 -6
21 -12 34 -14 40 -5 36 -26 -8 -39 -23 -7 -43 -10 -46 -8 -2 3 -5 68 -6 144 0
77 -4 183 -8 235 -4 52 -4 99 1 105 4 5 8 24 8 43 0 20 4 31 10 27 6 -4 9 -14
8 -22z m3619 -106 c28 -276 28 -277 6 -277 -10 0 -23 -4 -28 -8 -6 -5 -29 -14
-52 -21 -36 -10 -48 -9 -72 4 -33 16 -81 20 -81 6 0 -5 12 -12 26 -15 35 -9
20 -23 -32 -32 l-41 -6 -6 108 c-10 149 -9 212 2 195 6 -9 16 -11 27 -7 16 6
14 9 -13 21 -29 13 -33 18 -33 54 l0 39 88 22 c48 12 110 27 137 34 28 7 52
11 55 8 3 -2 11 -58 17 -125z m-7392 56 c-6 -25 -8 -26 -17 -10 -7 13 -6 22 3
33 16 20 23 10 14 -23z m4959 29 c2 -4 -7 -9 -20 -10 -15 -1 -22 2 -19 8 7 12
32 13 39 2z m-3884 -18 c0 -2 -9 -4 -20 -4 -11 0 -20 4 -20 9 0 5 9 7 20 4 11
-3 20 -7 20 -9z m3780 -258 l5 -197 -33 6 c-23 4 -32 3 -27 -4 3 -6 14 -11 24
-11 10 0 26 -10 37 -22 10 -12 14 -19 8 -15 -6 3 -23 0 -37 -8 -21 -11 -34
-11 -57 -3 -26 8 -30 15 -30 45 0 30 3 34 20 28 29 -9 25 4 -5 15 -35 13 -22
36 28 46 36 8 42 13 42 34 0 20 -6 25 -25 27 -14 1 -18 0 -7 -3 9 -3 17 -13
17 -22 0 -15 -2 -15 -10 -2 -7 12 -10 12 -10 1 0 -7 -6 -11 -15 -7 -10 3 -15
-1 -16 -12 0 -14 -2 -14 -9 3 -4 11 -8 93 -9 182 l-2 163 53 -23 53 -23 5
-198z m210 228 c0 -8 -4 -12 -10 -9 -5 3 -10 10 -10 16 0 5 5 9 10 9 6 0 10
-7 10 -16z m112 -32 c67 -29 56 -39 -15 -12 -48 18 -54 23 -49 43 4 15 7 17
10 7 1 -8 26 -25 54 -38z m1894 -150 c9 -105 14 -198 11 -205 -3 -8 -51 -22
-118 -36 -63 -12 -124 -24 -135 -26 -18 -4 -22 1 -27 32 -8 45 -4 49 28 35 14
-7 35 -12 45 -12 36 0 21 19 -29 36 l-48 18 -7 95 c-3 53 -6 117 -6 142 l0 46
76 18 c42 10 102 26 133 35 31 10 57 17 58 16 1 -1 10 -88 19 -194z m-6946
166 c0 -6 -7 -7 -16 -4 -9 3 -18 6 -20 6 -3 0 -3 4 1 10 7 11 35 2 35 -12z
m60 3 c0 -6 -4 -13 -10 -16 -5 -3 -10 1 -10 9 0 9 5 16 10 16 6 0 10 -4 10 -9z
m150 -9 c3 -3 -1 -7 -8 -9 -6 -3 -9 -9 -6 -15 4 -5 -5 -3 -18 6 -14 9 -27 13
-31 10 -3 -3 -11 -3 -18 2 -9 5 -7 9 7 15 18 7 64 2 74 -9z m4668 8 c9 -5 29
-14 45 -20 26 -9 27 -12 27 -85 0 -74 0 -75 -21 -64 -35 19 -75 27 -89 19 -8
-5 0 -11 22 -19 93 -32 88 -26 86 -126 -1 -49 -3 -72 -5 -50 -8 93 -12 102
-46 110 l-32 8 35 8 35 7 -34 -1 c-23 -1 -38 -9 -45 -22 -6 -11 -14 -22 -17
-25 -3 -3 -9 -18 -13 -34 -14 -58 -27 -8 -33 137 l-6 147 24 9 c32 13 46 13
67 1z m-4041 -32 c-3 -7 -5 -2 -5 12 0 14 2 19 5 13 2 -7 2 -19 0 -25z m1833
5 c16 4 20 0 20 -18 0 -21 -2 -22 -45 -12 -25 6 -42 15 -38 20 4 6 0 8 -10 4
-9 -3 -19 -2 -22 3 -8 14 18 18 48 7 15 -5 36 -7 47 -4z m2557 -40 c-3 -10 -5
-2 -5 17 0 19 2 27 5 18 2 -10 2 -26 0 -35z m-2417 19 c-32 -10 -50 -34 -40
-53 14 -24 13 -29 -6 -29 -12 0 -15 -6 -10 -25 4 -14 2 -25 -4 -25 -6 0 -10
29 -10 69 l0 70 33 3 c35 4 60 -3 37 -10z m-2170 -2 c11 -8 7 -9 -15 -4 -37 8
-45 14 -19 14 10 0 26 -5 34 -10z m4396 -10 c28 0 33 -16 21 -57 -7 -23 -17
-33 -30 -33 -14 0 -18 -5 -14 -20 3 -13 0 -20 -8 -20 -16 0 -21 35 -16 103 2
36 6 46 14 38 6 -6 21 -11 33 -11z m2324 -22 c0 -24 3 -60 6 -80 4 -24 3 -38
-4 -38 -6 0 -12 33 -14 80 -2 44 0 80 5 80 4 0 7 -19 7 -42z m-738 -35 c2 -32
3 -60 1 -62 -1 -2 -15 1 -30 8 -20 8 -28 18 -28 36 0 29 21 34 29 8 2 -10 5
-4 4 12 0 47 1 55 11 55 5 0 11 -26 13 -57z m-35 41 c-3 -3 -12 -4 -19 -1 -8
3 -5 6 6 6 11 1 17 -2 13 -5z m-3897 -26 c0 -23 -2 -22 -22 1 -16 18 -15 20 3
18 11 -1 19 -9 19 -19z m-3010 4 c0 -10 -81 -44 -88 -38 -3 3 61 37 86 45 1 1
2 -3 2 -7z m86 -17 c-11 -8 -22 -12 -25 -9 -6 6 19 24 34 24 6 -1 1 -7 -9 -15z
m993 6 c13 -7 16 -18 13 -40 -2 -17 -9 -31 -14 -31 -6 0 -8 9 -5 20 4 14 -1
25 -14 33 -35 22 -17 37 20 18z m1861 -16 c0 -1 -8 -5 -18 -7 -11 -3 -19 0
-19 7 0 7 8 10 19 7 10 -2 18 -6 18 -7z m3730 -9 c31 4 39 -12 24 -51 -5 -13
-9 -14 -15 -4 -12 19 -22 4 -14 -20 4 -13 15 -21 30 -21 22 0 24 -4 30 -87 14
-176 15 -168 -24 -165 -22 3 -31 0 -27 -7 4 -6 18 -11 32 -11 13 0 24 -4 24
-9 0 -16 -35 -22 -62 -12 -24 9 -25 14 -31 123 -8 126 -8 289 -1 272 3 -6 18
-10 34 -8z m-6150 -25 c0 -11 -4 -23 -10 -26 -6 -4 -10 5 -10 19 0 14 5 26 10
26 6 0 10 -9 10 -19z m2483 -102 c-9 -9 -186 -69 -191 -65 -1 2 0 10 3 18 4
10 15 13 32 10 18 -3 24 -1 19 7 -4 7 0 11 12 11 10 0 22 3 26 7 6 6 28 11 69
15 13 2 17 12 17 50 0 31 -4 48 -12 49 -7 0 -4 4 7 8 18 7 20 4 23 -47 2 -30
-1 -58 -5 -63z m3574 81 c7 -19 13 -60 8 -60 -18 0 -35 16 -35 34 0 33 13 73
18 56 2 -8 6 -22 9 -30z m-7172 20 c-3 -5 -11 -10 -16 -10 -6 0 -7 5 -4 10 3
6 11 10 16 10 6 0 7 -4 4 -10z m582 -109 c-5 -64 -12 -120 -16 -124 -4 -4 -35
-19 -67 -32 l-59 -24 -8 30 c-5 18 -4 36 1 42 6 7 15 55 22 107 6 52 13 100
14 105 2 6 30 11 62 11 l59 1 -8 -116z m-347 55 c0 -42 -2 -46 -34 -57 -41
-15 -38 -29 6 -29 23 0 29 -4 24 -16 -3 -9 -6 -19 -6 -24 0 -4 -19 -10 -42
-14 -32 -5 -39 -9 -28 -16 8 -5 27 -10 42 -10 22 0 26 -4 23 -22 -2 -13 -6
-48 -10 -80 -6 -52 -9 -57 -38 -68 -18 -6 -40 -16 -49 -21 -26 -13 -38 -11
-38 6 0 9 12 20 28 26 15 5 34 12 42 15 22 8 -16 27 -41 21 -16 -4 -19 0 -19
26 1 42 26 257 31 261 3 2 97 42 107 45 1 1 2 -19 2 -43z m6873 24 c3 -11 1
-20 -4 -20 -5 0 -9 5 -9 10 0 6 -11 10 -25 10 -36 0 -31 -17 10 -34 31 -13 35
-19 35 -53 0 -21 3 -62 7 -92 5 -44 3 -53 -8 -49 -8 3 -13 11 -11 18 2 8 -3
10 -13 7 -8 -4 -15 -2 -15 4 0 6 -6 9 -14 6 -10 -4 -15 11 -20 61 -11 127 -9
140 22 145 15 2 30 5 33 6 4 0 9 -8 12 -19z m-6434 -32 c1 7 12 11 30 10 16
-1 36 4 45 11 14 11 16 11 16 -3 0 -9 -5 -16 -10 -16 -6 0 -20 -11 -31 -25
-12 -13 -35 -27 -50 -30 -16 -4 -29 -10 -29 -15 0 -12 31 -21 51 -15 14 5 19
1 19 -13 0 -14 -13 -25 -41 -36 -23 -9 -44 -15 -46 -12 -3 2 1 45 8 95 12 85
14 89 25 64 7 -16 13 -22 13 -15z m4442 -11 c-13 -13 -15 1 -4 30 7 17 8 17
11 -1 2 -10 -1 -23 -7 -29z m1888 -69 c4 -27 4 -45 -2 -41 -5 3 -34 7 -65 9
-30 3 -57 6 -59 8 -2 2 -6 24 -9 48 l-5 44 58 14 58 15 8 -25 c5 -14 12 -46
16 -72z m-3149 51 c0 -21 -4 -28 -12 -23 -19 12 -61 14 -74 3 -6 -5 -20 -7
-30 -3 -11 3 -9 -1 6 -10 28 -17 19 -22 -10 -6 -25 14 -68 3 -73 -18 -4 -13
-5 -12 -6 3 -1 17 14 26 92 52 50 17 95 32 100 32 4 1 7 -13 7 -30z m237 15
c35 -7 36 -8 13 -14 -82 -22 -80 -22 -80 6 0 19 4 25 14 21 8 -3 32 -9 53 -13z
m1840 10 c-3 -3 -12 -4 -19 -1 -8 3 -5 6 6 6 11 1 17 -2 13 -5z m1477 -57 c7
-70 7 -178 -1 -159 -2 6 -10 12 -17 12 -8 0 -12 32 -14 103 -3 85 -1 104 11
104 10 0 16 -17 21 -60z m-7354 -112 c-7 -60 -15 -118 -19 -128 -7 -19 -8 -19
-28 2 -23 25 -50 20 -63 -13 -7 -14 -9 1 -7 49 l2 70 43 13 c49 16 46 37 -5
29 l-35 -6 7 42 c4 23 8 43 10 45 1 1 24 13 51 26 l49 24 4 -22 c1 -11 -2 -70
-9 -131z m5864 140 c-4 -8 -8 -15 -10 -15 -2 0 -4 7 -4 15 0 8 4 15 10 15 5 0
7 -7 4 -15z m2363 -17 c-3 -7 -5 -2 -5 12 0 14 2 19 5 13 2 -7 2 -19 0 -25z
m-1493 7 c6 -17 2 -18 -33 -8 -23 6 -23 7 -5 14 28 11 31 11 38 -6z m393 7
c11 -7 34 -227 25 -236 -5 -6 -62 18 -62 25 0 4 8 10 18 14 15 6 15 8 2 18
-12 9 -14 31 -12 100 3 87 6 94 29 79z m-4407 -98 c0 -88 -2 -95 -17 -89 -10
4 -38 13 -63 19 -51 14 -57 29 -41 106 9 44 9 44 10 10 1 -27 4 -31 11 -20 6
10 10 11 10 3 0 -8 13 -13 30 -13 23 0 30 4 30 20 0 17 20 60 27 60 2 0 3 -43
3 -96z m40 -6 c0 -56 -3 -98 -8 -92 -7 9 -4 194 4 194 2 0 4 -46 4 -102z m150
72 c0 -25 -5 -31 -40 -41 -22 -7 -40 -17 -40 -22 0 -5 17 -7 40 -4 l40 5 0
-73 c0 -53 -4 -76 -15 -85 -13 -11 -14 -10 -10 1 4 11 -8 18 -41 27 l-47 13 7
37 c3 20 6 65 6 100 0 40 4 61 10 57 6 -3 10 -15 10 -25 0 -13 5 -17 14 -14 9
3 12 12 9 21 -5 13 -1 15 20 11 19 -4 27 -1 27 8 0 8 2 14 5 14 3 0 5 -13 5
-30z m4584 -72 c7 -95 6 -98 -13 -98 -17 0 -21 6 -21 35 0 19 5 35 10 35 6 0
10 29 10 67 0 93 6 76 14 -39z m-811 71 c27 -8 53 -22 59 -32 10 -19 19 -22
-97 28 -32 14 -51 33 -22 23 6 -3 34 -11 60 -19z m-4028 -7 c0 -18 -20 -15
-23 4 -3 10 1 15 10 12 7 -3 13 -10 13 -16z m1098 11 c-7 -2 -19 -2 -25 0 -7
3 -2 5 12 5 14 0 19 -2 13 -5z m-590 -10 c-30 -12 -7 -18 67 -18 65 0 80 -3
80 -15 0 -8 -4 -19 -8 -25 -8 -11 -67 -12 -92 -3 -8 4 -28 10 -45 15 -39 12
-49 53 -13 52 13 0 17 -3 11 -6z m387 -13 c0 -5 -4 -10 -10 -10 -5 0 -10 5
-10 10 0 6 5 10 10 10 6 0 10 -4 10 -10z m123 3 c-7 -2 -19 -2 -25 0 -7 3 -2
5 12 5 14 0 19 -2 13 -5z m1277 -7 c0 -12 -87 -43 -96 -34 -7 8 13 26 41 36
42 15 55 14 55 -2z m-1424 -11 c14 -13 12 -15 -18 -15 -18 0 -40 -5 -48 -10
-13 -9 -13 -11 0 -21 12 -8 10 -9 -9 -4 -15 5 -21 3 -17 -3 3 -5 -6 -13 -22
-16 -15 -4 -36 -10 -47 -13 -11 -3 -17 -2 -13 2 4 5 4 13 -2 19 -19 23 -2 31
158 75 2 1 10 -6 18 -14z m4711 -32 c-3 -10 -5 -2 -5 17 0 19 2 27 5 18 2 -10
2 -26 0 -35z m-8391 21 c-3 -9 -6 -27 -6 -40 0 -19 -8 -28 -30 -35 -32 -12
-32 -29 1 -29 13 0 19 -7 19 -24 0 -33 -10 -57 -21 -50 -5 3 -7 10 -4 15 3 5
-2 6 -11 2 -10 -4 -15 -2 -11 3 3 6 -3 16 -14 22 -17 11 -21 9 -29 -10 -8 -20
-9 -19 -9 12 0 82 12 110 54 130 51 23 69 25 61 4z m2704 -17 c0 -44 -5 -48
-48 -33 -49 17 -50 31 -5 49 52 22 53 21 53 -16z m2726 12 c3 -5 -5 -8 -17 -6
-13 2 -25 9 -27 15 -4 12 35 4 44 -9z m2878 5 c3 -9 6 -32 6 -53 l0 -37 -125
-28 c-148 -34 -175 -30 -175 28 0 34 0 34 67 50 44 10 72 12 84 5 23 -12 69
-12 69 1 0 6 -7 10 -17 10 -24 0 -7 13 35 26 50 16 49 16 56 -2z m-3124 -4 c0
-5 -4 -10 -10 -10 -5 0 -10 5 -10 10 0 6 5 10 10 10 6 0 10 -4 10 -10z m1927
-40 c2 0 3 -9 3 -20 0 -26 -7 -25 -79 6 -86 38 -82 59 6 33 38 -10 69 -19 70
-19z m-1507 -25 c0 -30 -3 -35 -23 -35 -25 0 -67 30 -67 48 0 14 18 20 58 21
30 1 32 -1 32 -34z m-2150 15 c0 -5 -4 -10 -10 -10 -5 0 -10 -9 -10 -20 0 -11
-7 -20 -15 -20 -16 0 -19 17 -9 44 7 17 44 22 44 6z m1515 0 c-3 -5 -11 -10
-16 -10 -6 0 -7 5 -4 10 3 6 11 10 16 10 6 0 7 -4 4 -10z m865 -4 c0 -8 -4
-18 -10 -21 -5 -3 -10 3 -10 14 0 12 5 21 10 21 6 0 10 -6 10 -14z m-6010 -73
c-9 -15 -10 -11 -8 19 3 29 1 35 -9 26 -9 -7 -13 -7 -13 0 0 6 8 15 18 21 14
8 17 5 20 -19 2 -16 -2 -38 -8 -47z m4957 45 c-3 -8 -6 -5 -6 6 -1 11 2 17 5
13 3 -3 4 -12 1 -19z m2439 -8 c2 0 4 -7 4 -15 0 -18 -7 -18 -49 -4 -20 7 -31
18 -31 30 0 18 2 18 36 4 20 -8 38 -15 40 -15z m759 4 c0 -15 -9 -20 -40 -24
l-40 -5 33 -12 c18 -7 32 -8 32 -2 0 5 5 9 10 9 21 0 10 -40 -12 -45 -117 -26
-196 -40 -192 -33 3 4 14 8 25 8 11 0 18 4 14 9 -3 6 14 11 37 13 42 4 42 4
18 16 -24 12 -23 12 10 7 25 -4 31 -2 23 6 -7 7 -32 9 -69 5 -33 -3 -70 -5
-83 -6 -14 0 -29 -6 -33 -12 -6 -9 -8 -7 -6 6 2 14 17 23 53 33 28 7 58 11 68
9 9 -2 15 0 12 4 -3 4 17 11 43 15 26 3 54 10 62 15 21 13 35 7 35 -16z
m-3063 7 c-8 -4 -13 -10 -12 -12 1 -2 -2 -12 -6 -23 -6 -16 -8 -17 -16 -2 -5
9 -13 14 -19 11 -5 -3 -17 -2 -26 4 -15 8 -16 10 -3 15 46 15 102 20 82 7z
m58 -16 c0 -13 -4 -14 -20 -5 -11 6 -20 13 -20 15 0 3 9 5 20 5 11 0 20 -7 20
-15z m1135 5 c-3 -5 -12 -10 -18 -10 -7 0 -6 4 3 10 19 12 23 12 15 0z m-1375
-30 c0 -5 -5 -10 -11 -10 -5 0 -7 5 -4 10 3 6 8 10 11 10 2 0 4 -4 4 -10z
m2768 -14 c14 5 13 3 -2 -10 -28 -23 -34 -20 -28 12 4 18 7 21 10 10 2 -11 9
-15 20 -12z m-1745 -3 c-7 -2 -21 -2 -30 0 -10 3 -4 5 12 5 17 0 24 -2 18 -5z
m1907 -48 c0 -38 -3 -45 -19 -45 -15 0 -20 9 -23 41 -4 45 -2 49 24 49 15 0
18 -8 18 -45z m-174 -15 c0 -11 -4 -20 -8 -20 -4 0 -8 9 -8 20 0 11 4 20 8 20
4 0 8 -9 8 -20z m-56 0 c0 -5 -4 -10 -9 -10 -6 0 -13 5 -16 10 -3 6 1 10 9 10
9 0 16 -4 16 -10z m-7915 -59 c6 -11 -1 -16 -38 -25 -26 -6 -27 -6 -10 14 19
21 38 26 48 11z m228 -66 c7 -6 18 -10 25 -7 8 2 12 -8 12 -32 0 -38 -9 -43
-59 -29 -22 5 -23 9 -16 56 7 60 19 82 23 48 2 -13 9 -30 15 -36z m-233 14 c0
-7 -8 -18 -17 -25 -17 -13 -17 -13 1 -14 17 0 18 -6 13 -66 -2 -36 -6 -66 -8
-68 -2 -1 -26 -1 -52 2 l-49 4 7 47 c11 80 17 92 49 112 35 21 56 24 56 8z
m-200 -10 c0 -5 5 -7 10 -4 6 3 10 1 10 -4 0 -6 10 -11 21 -11 21 0 22 -3 15
-61 -8 -77 -11 -82 -41 -63 -14 9 -32 13 -41 10 -14 -5 -15 0 -10 41 11 80 17
103 27 103 5 0 9 -5 9 -11z m-80 -39 c0 -37 -2 -40 -27 -40 -14 0 -34 -7 -43
-15 -15 -14 -16 -12 -12 18 6 42 22 63 34 45 7 -10 13 -8 25 10 8 12 17 22 19
22 2 0 4 -18 4 -40z m270 -146 c8 -8 -39 -43 -67 -50 -30 -8 -32 -6 -26 35 6
33 6 33 46 27 23 -4 44 -9 47 -12z m-690 -187 c0 -46 -26 -69 -65 -59 -66 18
-28 78 58 91 4 0 7 -14 7 -32z m204 4 c17 -6 16 -9 -9 -25 -31 -20 -36 -18
-28 12 6 24 8 24 37 13z m-236 -106 c11 -11 -6 -15 -36 -9 -18 4 -32 11 -32
17 0 9 58 3 68 -8z m-38 -24 c0 -12 -28 -22 -34 -12 -3 5 -3 11 1 15 9 9 33 7
33 -3z m4373 -73 c-10 -17 -31 -7 -26 11 4 16 8 17 18 8 7 -7 11 -15 8 -19z
m-95 -35 c-3 -52 -5 -58 -28 -63 -18 -4 -26 -13 -28 -33 -2 -15 -10 -27 -18
-27 -11 0 -14 17 -14 77 0 60 3 74 12 65 20 -20 45 -14 52 13 12 47 27 27 24
-32z m343 37 c1 -3 3 -20 5 -37 3 -27 0 -33 -15 -33 -40 0 -81 13 -81 26 0 17
-3 17 -50 3 -37 -11 -37 -12 -43 -77 -7 -67 -13 -84 -25 -66 -4 6 -23 15 -42
20 -23 6 -35 16 -34 27 0 9 1 38 2 65 l2 47 53 13 c62 14 84 15 89 3 2 -5 18
-6 35 -4 18 3 31 8 29 12 -2 3 13 6 35 6 21 0 39 -2 40 -5z m3904 -59 c6 0 -6
7 -25 14 -55 21 -21 17 53 -6 44 -14 65 -25 61 -32 -5 -8 -3 -8 6 0 9 8 19 9
30 3 10 -6 30 -6 48 0 30 8 32 7 38 -25 3 -18 4 -41 2 -51 -5 -25 -28 -30 -35
-6 -5 22 -63 48 -72 34 -3 -5 -19 -12 -36 -16 -16 -3 -40 -9 -52 -11 -21 -5
-23 -2 -23 33 0 34 -3 39 -33 50 -41 15 -50 15 -42 2 3 -5 2 -10 -4 -10 -6 0
-8 -7 -5 -15 4 -10 0 -15 -11 -15 -9 0 -13 5 -10 10 3 6 1 10 -4 10 -6 0 -11
13 -11 29 l0 28 58 -13 c31 -8 62 -13 67 -13z m75 19 c13 -9 13 -10 0 -10 -8
0 -22 5 -30 10 -13 9 -13 10 0 10 8 0 22 -5 30 -10z m-3887 -35 c15 -4 30 -12
34 -18 4 -7 0 -8 -11 -4 -10 4 -29 7 -42 7 -18 0 -24 5 -24 23 0 13 3 17 8 10
4 -6 20 -15 35 -18z m3651 -24 c-5 -5 -45 -11 -89 -14 l-80 -6 52 18 c29 9 55
20 58 23 4 4 13 4 21 1 8 -3 17 3 21 13 6 16 7 16 16 -4 6 -14 7 -26 1 -31z
m456 3 c0 -14 -4 -22 -10 -19 -5 3 -10 17 -10 31 0 14 4 22 10 19 6 -3 10 -17
10 -31z m-3850 -8 c0 -2 -9 -6 -20 -9 -11 -3 -20 -1 -20 4 0 5 9 9 20 9 11 0
20 -2 20 -4z m-90 -16 c0 -5 -8 -10 -17 -10 -15 0 -16 2 -3 10 19 12 20 12 20
0z m3098 -11 c56 -14 77 -29 41 -29 -14 0 -29 3 -33 8 -4 4 -22 12 -39 19 -42
15 -28 16 31 2z m209 5 c-3 -3 -12 -4 -19 -1 -8 3 -5 6 6 6 11 1 17 -2 13 -5z
m-3972 -100 c0 -38 -4 -49 -17 -52 -15 -3 -18 4 -18 46 0 27 3 52 7 56 16 16
28 -4 28 -50z m193 16 c15 0 22 -6 22 -20 0 -11 -4 -20 -10 -20 -5 0 -10 5
-10 11 0 5 -4 8 -9 4 -5 -3 -12 -1 -15 4 -3 5 -15 7 -26 4 -14 -4 -20 0 -20
12 0 13 6 16 23 11 12 -3 32 -6 45 -6z m4324 -7 c-6 -2 -10 -9 -6 -14 3 -5 0
-9 -5 -9 -6 0 -11 7 -11 15 0 8 8 15 18 14 10 0 12 -3 4 -6z m-165 -9 c-3 -3
-12 -4 -19 -1 -8 3 -5 6 6 6 11 1 17 -2 13 -5z m171 -36 c-6 -18 -28 -21 -28
-4 0 9 7 16 16 16 9 0 14 -5 12 -12z m-3044 -39 c21 -19 -6 -20 -61 -1 l-58
20 55 -5 c30 -3 59 -9 64 -14z m1606 14 c-19 -3 -41 -9 -48 -15 -15 -13 -27
-4 -17 11 3 6 27 10 53 9 41 -1 42 -2 12 -5z m-1433 -19 c-3 -4 -21 -10 -39
-14 -30 -7 -29 -8 18 -9 38 -1 54 -5 58 -17 4 -9 13 -14 21 -10 16 6 19 -3 9
-27 -4 -12 -11 -13 -35 -5 -16 5 -26 14 -23 20 4 7 -6 8 -27 3 -23 -4 -29 -3
-20 3 10 7 -1 13 -38 23 -28 7 -51 17 -51 22 0 5 10 7 23 4 12 -3 38 -2 57 3
46 10 55 11 47 4z m1303 -3 c0 -12 -18 -18 -83 -26 -40 -5 -57 -4 -57 4 0 6 3
11 8 12 4 0 29 2 56 5 27 2 52 6 54 9 8 8 22 6 22 -4z m150 -11 c0 -5 -4 -10
-10 -10 -5 0 -10 5 -10 10 0 6 5 10 10 10 6 0 10 -4 10 -10z m-4334 -32 c-1
-26 -20 -29 -76 -15 -59 15 -61 29 -3 21 44 -5 54 -4 59 10 8 22 22 12 20 -16z
m3957 8 c16 -4 27 -2 27 4 0 5 5 10 10 10 6 0 10 -6 10 -14 0 -21 -70 -30
-119 -15 -83 25 -24 37 72 15z m-2735 -24 c2 -14 -2 -22 -12 -22 -19 0 -28 14
-20 35 9 21 28 14 32 -13z m192 9 c0 -5 -9 -7 -20 -4 -11 3 -20 7 -20 9 0 2 9
4 20 4 11 0 20 -4 20 -9z m1610 -11 c0 -5 18 -13 40 -16 58 -9 42 -16 -19 -8
-33 4 -51 11 -51 20 0 8 7 14 15 14 8 0 15 -4 15 -10z m3273 -7 c-7 -2 -19 -2
-25 0 -7 3 -2 5 12 5 14 0 19 -2 13 -5z m760 -36 c-49 -46 -57 -39 -8 8 20 20
39 34 42 32 2 -3 -13 -21 -34 -40z m99 18 c-2 -14 -6 -25 -8 -25 -2 0 -4 11
-4 25 0 14 4 25 9 25 4 0 6 -11 3 -25z m-1582 -10 c0 -14 -4 -25 -10 -25 -11
0 -14 33 -3 43 11 11 13 8 13 -18z m-2535 -5 c11 -5 16 -9 10 -9 -5 -1 -20 -4
-32 -7 -17 -5 -23 -2 -23 10 0 17 14 19 45 6z m148 -7 c-7 -2 -21 -2 -30 0
-10 3 -4 5 12 5 17 0 24 -2 18 -5z m-25 -46 c10 -3 6 -5 -10 -6 -22 -1 -25 2
-20 22 5 17 7 18 10 5 2 -9 11 -19 20 -21z m-3176 -7 c3 -17 1 -33 -4 -36 -4
-3 -8 11 -8 30 0 44 6 47 12 6z m3041 13 c-7 -2 -19 -2 -25 0 -7 3 -2 5 12 5
14 0 19 -2 13 -5z m-3043 -88 c0 -14 -4 -25 -10 -25 -5 0 -10 11 -10 25 0 14
5 25 10 25 6 0 10 -11 10 -25z m-1010 -56 c0 -5 -9 -9 -20 -9 -19 0 -26 11
-14 23 8 8 34 -3 34 -14z m112 -6 c18 -15 35 -28 37 -30 2 -1 -4 -9 -13 -18
-15 -16 -18 -15 -41 7 -13 12 -29 23 -34 23 -6 0 -11 3 -11 8 0 4 0 14 0 22 0
23 25 18 62 -12z m888 -53 c0 -5 -4 -10 -10 -10 -5 0 -10 5 -10 10 0 6 5 10
10 10 6 0 10 -4 10 -10z m-879 -107 c-6 -21 -15 -29 -42 -34 -18 -4 -36 -5
-39 -3 -11 11 20 39 43 39 14 -1 23 3 21 7 -3 4 -12 8 -20 8 -19 0 -18 5 8 35
l23 26 6 -25 c4 -14 4 -38 0 -53z m-6 -93 c3 -5 0 -10 -9 -10 -8 0 -16 -6 -19
-12 -2 -7 -7 -10 -11 -7 -10 9 5 39 19 39 8 0 17 -4 20 -10z m8765 1 c0 -11
-26 -22 -34 -14 -12 12 -5 23 14 23 11 0 20 -4 20 -9z m-80 -11 c0 -5 -12 -10
-26 -10 -14 0 -23 4 -19 10 3 6 15 10 26 10 10 0 19 -4 19 -10z m-5067 -327
c-7 -2 -19 -2 -25 0 -7 3 -2 5 12 5 14 0 19 -2 13 -5z m54 -20 c16 -6 15 -8
-7 -15 -19 -5 -14 -7 18 -5 37 2 43 0 48 -19 12 -47 3 -55 -64 -58 -34 -1 -65
0 -68 3 -3 3 -27 11 -52 16 -41 9 -47 14 -50 37 -3 26 -2 27 33 21 20 -3 46
-1 58 5 12 6 31 13 42 15 11 3 21 5 22 6 1 0 10 -2 20 -6z m-302 -23 c19 0 37
5 40 10 9 15 25 2 25 -19 0 -16 -5 -17 -55 -8 -40 8 -55 15 -54 26 0 10 2 12
6 4 2 -7 20 -13 38 -13z m1547 9 c25 1 49 -3 53 -9 4 -6 -6 -10 -24 -10 -28 0
-29 -2 -24 -33 5 -31 3 -34 -30 -44 -42 -13 -83 3 -81 30 1 11 -6 17 -20 17
-16 0 -18 -2 -7 -9 17 -11 7 -45 -12 -39 -13 5 -18 49 -10 87 5 22 9 23 57 16
28 -4 72 -6 98 -6z m-1054 -28 c23 -7 40 -16 37 -20 -3 -5 2 -11 10 -15 9 -3
15 0 15 9 0 8 5 15 10 15 6 0 10 -18 10 -41 0 -34 -3 -40 -17 -35 -10 3 -38 8
-63 11 -25 3 -54 8 -65 10 -11 2 -23 4 -27 4 -5 1 -8 18 -8 40 0 36 2 39 28
36 15 -1 46 -8 70 -14z m862 -6 c0 -23 -3 -25 -49 -25 -27 0 -56 -3 -65 -6
-11 -4 -16 -1 -16 10 0 10 9 16 23 16 12 0 33 7 47 14 40 23 60 20 60 -9z
m460 16 c0 -6 15 -7 34 -4 19 3 42 0 52 -7 17 -10 17 -11 1 -6 -9 3 -54 -3
-100 -14 -45 -10 -95 -21 -112 -23 -27 -4 -26 -4 8 -6 52 -2 47 -18 -7 -23
-49 -3 -56 5 -56 65 l0 27 90 0 c50 0 90 -4 90 -9z m-1130 -41 c-8 -6 -24 -10
-35 -11 l-20 -1 20 -6 20 -5 -20 -7 c-15 -6 -9 -9 28 -15 32 -5 47 -12 47 -22
0 -12 -9 -14 -47 -8 -62 9 -65 11 -59 48 2 18 5 32 5 32 1 0 18 1 38 2 26 1
33 -1 23 -7z m470 -5 c0 -9 -9 -15 -22 -14 -20 1 -20 2 -4 6 15 4 16 7 5 14
-11 7 -11 9 4 9 9 0 17 -7 17 -15z m200 -25 c0 -16 -7 -20 -35 -20 -22 0 -35
5 -35 13 0 20 10 27 42 27 21 0 28 -5 28 -20z m510 12 c0 -4 -8 -8 -17 -9 -10
-1 -35 -4 -55 -6 -28 -4 -38 -1 -38 9 0 10 15 14 55 14 30 0 55 -4 55 -8z
m-600 -16 c0 -8 -7 -17 -16 -20 -23 -9 -24 -8 -24 14 0 13 7 20 20 20 11 0 20
-6 20 -14z m-911 -38 c-1 -22 -3 -26 -6 -13 -3 11 -10 26 -15 33 -8 9 -6 12 6
12 12 0 16 -9 15 -32z m511 -7 c0 -37 -2 -39 -35 -43 -43 -5 -45 -3 -45 37 0
39 1 40 45 43 35 3 35 2 35 -37z m300 31 c0 -10 -21 -32 -31 -32 -4 0 -5 9 -2
20 5 19 33 29 33 12z m-56 -10 c3 -5 -4 -16 -15 -25 -10 -9 -19 -25 -19 -36 0
-14 -6 -17 -24 -14 -20 4 -25 12 -28 44 l-4 39 43 0 c23 0 44 -4 47 -8z m-849
-12 c3 -5 -1 -10 -10 -10 -9 0 -13 5 -10 10 3 6 8 10 10 10 2 0 7 -4 10 -10z
m1465 6 c0 -11 -19 -15 -25 -6 -3 5 1 10 9 10 9 0 16 -2 16 -4z m-1150 -28 c0
-19 -2 -20 -10 -8 -13 19 -13 30 0 30 6 0 10 -10 10 -22z m-100 2 c0 -5 -2
-10 -4 -10 -3 0 -8 5 -11 10 -3 6 -1 10 4 10 6 0 11 -4 11 -10z m183 4 c9 -9
-16 -44 -30 -44 -7 0 -13 11 -13 25 0 18 5 25 18 25 10 0 21 -3 25 -6z m-393
-13 c0 -4 -11 -6 -25 -3 -14 2 -25 6 -25 8 0 2 11 4 25 4 14 0 25 -4 25 -9z
m155 -1 c3 -5 1 -10 -4 -10 -6 0 -11 5 -11 10 0 6 2 10 4 10 3 0 8 -4 11 -10z
m2262 -16 c-3 -3 -12 -4 -19 -1 -8 3 -5 6 6 6 11 1 17 -2 13 -5z m-885 -56
c-6 -6 -16 -7 -22 -3 -9 6 -9 9 1 16 17 10 34 0 21 -13z m-1542 -4 c0 -2 -16
-4 -35 -4 -19 0 -35 4 -35 8 0 4 16 6 35 4 19 -2 35 -6 35 -8z m1450 -5 c0 -5
-8 -9 -17 -7 -10 1 -24 -1 -30 -5 -9 -5 -13 -3 -13 7 0 11 9 16 30 16 17 0 30
-5 30 -11z m-903 -61 c-2 -13 -4 -5 -4 17 -1 22 1 32 4 23 2 -10 2 -28 0 -40z
m863 12 c0 -5 -4 -10 -10 -10 -5 0 -10 5 -10 10 0 6 5 10 10 10 6 0 10 -4 10
-10z m1790 -46 c0 -2 -9 -4 -21 -4 -11 0 -18 4 -14 10 5 8 35 3 35 -6z m-110
-19 c0 -22 -4 -25 -32 -25 l-33 1 28 24 c35 31 37 31 37 0z m-1620 5 c0 -5 -2
-10 -4 -10 -3 0 -8 5 -11 10 -3 6 -1 10 4 10 6 0 11 -4 11 -10z m1760 -11 c0
-6 -6 -9 -14 -6 -7 3 -18 1 -24 -5 -11 -11 -36 -2 -28 10 7 12 66 12 66 1z
m-4850 -19 c0 -11 -7 -20 -15 -20 -17 0 -18 2 -9 24 9 23 24 20 24 -4z m2179
-77 c1 -15 -5 -23 -15 -23 -14 0 -15 7 -10 38 3 20 6 48 7 62 1 28 17 -39 18
-77z m33 35 c2 -21 0 -38 -4 -38 -4 0 -8 21 -7 48 1 52 6 48 11 -10z m-3332
-79 c0 -16 -26 -10 -45 11 -18 20 -18 20 13 9 18 -6 32 -15 32 -20z m6685 1
c-28 -12 -57 -12 -50 0 3 6 21 10 38 9 27 0 29 -2 12 -9z m-5555 -20 c0 -5 -6
-10 -14 -10 -8 0 -18 5 -21 10 -3 6 3 10 14 10 12 0 21 -4 21 -10z m-18 -32
c-9 -9 -15 -9 -24 0 -9 9 -7 12 12 12 19 0 21 -3 12 -12z m-862 -20 c0 -11
-28 -10 -35 1 -3 6 4 9 15 8 11 -1 20 -5 20 -9z m-33 -90 c-3 -7 -5 -2 -5 12
0 14 2 19 5 13 2 -7 2 -19 0 -25z m2823 -73 c69 -8 157 -15 195 -16 l70 -1
-55 -8 c-30 -4 -85 -11 -122 -15 l-66 -6 43 -62 c35 -50 80 -124 163 -261 3
-5 -5 -7 -16 -4 -35 9 -25 -8 11 -20 25 -9 3 -10 -108 -6 -133 4 -377 23 -382
28 -2 1 -5 37 -7 80 -5 106 -16 108 -16 3 0 -84 -1 -87 -23 -87 -22 0 -59 -30
-92 -75 -15 -20 -15 -20 -21 2 -3 12 -13 24 -23 26 -9 3 -1 5 17 6 17 0 32 6
32 11 0 6 -6 10 -13 8 -7 -2 -12 2 -12 7 0 6 15 9 33 9 39 -2 42 11 5 24 -16
6 -21 11 -12 11 11 1 17 10 17 27 0 14 13 42 29 62 16 20 35 47 42 60 7 12 16
20 22 17 5 -4 9 -1 9 6 0 12 105 147 124 161 6 4 22 8 36 9 20 1 18 3 -10 9
-61 13 0 10 130 -5z m980 -7 c22 -7 40 -17 40 -21 0 -5 27 -37 60 -71 l61 -63
1 -101 c1 -56 -1 -104 -4 -108 -4 -3 -58 -10 -120 -15 -159 -11 -492 -19 -438
-10 25 4 35 9 23 9 -33 3 -39 22 -6 22 24 1 26 2 12 13 -20 15 -17 20 104 181
49 65 87 119 85 121 -2 1 -50 9 -108 18 l-105 15 85 2 c47 1 112 6 145 10 94
11 122 11 165 -2z m-3380 -159 c-25 -4 -65 -7 -90 -7 l-45 1 50 7 c28 4 68 7
90 7 l40 0 -45 -8z m8211 -22 c-1 -4 -1 -13 -1 -21 0 -9 -8 -12 -25 -8 -29 5
-34 28 -7 35 22 6 34 4 33 -6z m190 -3 c51 -12 69 -20 69 -32 0 -11 3 -13 8
-6 10 17 72 5 72 -13 0 -9 -6 -13 -15 -9 -8 3 -15 0 -15 -7 0 -9 -2 -9 -8 1
-6 9 -25 10 -70 6 -55 -6 -62 -9 -57 -25 4 -11 2 -19 -4 -19 -6 0 -12 10 -12
23 -1 15 -4 10 -9 -13 -7 -32 -7 -32 -9 -7 -1 19 -8 30 -24 36 -18 7 -23 17
-24 45 -1 42 0 42 98 20z m-4794 -76 c-8 -5 -6 -9 6 -12 50 -17 53 -19 32 -23
-47 -10 -47 -17 0 -23 l50 -7 -47 -1 c-55 -2 -66 -22 -13 -22 24 0 35 -5 35
-15 0 -9 9 -15 25 -15 14 0 25 -4 25 -10 0 -15 -61 -11 -90 5 -14 8 -35 14
-47 15 -20 0 -22 5 -25 88 -2 48 -2 91 0 95 2 4 17 -9 32 -30 19 -26 25 -40
17 -45z m4368 62 c3 -5 -1 -10 -9 -10 -8 0 -18 5 -21 10 -3 6 1 10 9 10 8 0
18 -4 21 -10z m247 -55 c13 -41 9 -55 -16 -55 -18 0 -25 7 -30 31 -3 17 -4 35
-1 39 9 15 40 5 47 -15z m-787 5 c4 -6 3 -25 0 -42 -7 -28 -9 -30 -20 -15 -15
21 -65 23 -65 2 0 -20 -16 -19 -24 1 -13 34 -6 53 22 57 53 8 81 7 87 -3z
m675 -5 c0 -7 8 -19 18 -24 14 -9 13 -10 -10 -11 -23 0 -28 4 -28 25 0 14 5
25 10 25 6 0 10 -7 10 -15z m-815 -26 c0 -19 -5 -23 -22 -21 -16 2 -23 -2 -23
-12 0 -12 -12 -16 -50 -18 -27 -1 -58 -2 -67 -2 -10 -1 -18 4 -18 11 0 6 -3
15 -7 19 -17 16 -7 34 20 35 15 0 36 4 47 9 11 4 43 7 70 5 46 -2 50 -4 50
-26z m775 11 c0 -13 -7 -20 -20 -20 -13 0 -20 7 -20 20 0 13 7 20 20 20 13 0
20 -7 20 -20z m-8146 -1 c14 -7 22 -17 19 -25 -4 -10 5 -14 33 -14 22 0 50 -3
64 -6 17 -5 22 -3 15 4 -5 5 -19 12 -30 15 -16 4 -16 5 5 6 16 0 37 -11 58
-32 45 -44 162 -191 156 -196 -2 -2 -33 -3 -68 -2 -111 4 -186 -58 -200 -164
-3 -22 -11 -282 -17 -579 -10 -453 -9 -540 2 -547 10 -6 11 -9 2 -9 -7 0 -13
-9 -13 -19 0 -17 5 -18 38 -11 20 4 88 10 150 12 l112 4 0 -36 c0 -61 -12
-130 -22 -124 -5 3 -14 1 -21 -4 -7 -5 -22 -13 -34 -16 -18 -6 -22 -2 -28 24
-4 16 -11 28 -16 24 -5 -3 -7 -14 -4 -25 4 -11 2 -19 -4 -19 -6 0 -11 5 -11
11 0 6 -8 8 -19 4 -10 -3 -23 1 -31 10 -13 16 -7 45 10 45 6 0 8 -4 5 -10 -3
-5 -2 -10 4 -10 21 0 20 17 -2 27 -25 11 -50 6 -41 -9 7 -10 -50 -68 -67 -68
-5 0 -2 11 7 25 15 23 15 25 1 19 -18 -7 -31 -39 -22 -54 3 -5 0 -8 -7 -5 -14
6 -16 54 -3 75 8 13 9 13 -273 -6 l-83 -6 5 88 c7 106 12 214 31 644 8 179 19
431 25 560 14 291 9 357 -8 115 -8 -99 -27 -360 -42 -580 -27 -365 -39 -516
-46 -570 -1 -11 -5 -73 -9 -138 l-8 -118 -31 2 c-17 2 -44 -1 -59 -5 -15 -5
-30 -6 -33 -4 -2 3 4 83 15 179 11 96 34 305 51 464 16 160 40 383 52 496 l22
206 -22 67 -22 66 78 79 c84 85 152 140 152 122 0 -6 9 -11 20 -11 11 0 20 5
20 11 0 8 19 10 61 6 49 -4 59 -3 55 9 -6 17 -4 17 28 3z m7096 -35 c0 -19 -4
-34 -9 -34 -12 0 -25 56 -16 70 12 19 25 0 25 -36z m818 29 c6 -19 -25 -16
-32 3 -4 11 -1 14 11 12 9 -2 18 -9 21 -15z m92 2 c0 -8 -9 -15 -20 -15 -11 0
-20 5 -20 11 0 6 7 9 15 5 8 -3 15 -1 15 4 0 6 2 10 5 10 3 0 5 -7 5 -15z m40
0 c0 -8 -4 -15 -10 -15 -5 0 -10 7 -10 15 0 8 5 15 10 15 6 0 10 -7 10 -15z
m-998 -35 c3 -16 1 -30 -4 -30 -4 0 -8 7 -8 16 0 9 -5 14 -11 12 -6 -2 -10 -8
-10 -13 0 -10 -39 -28 -46 -21 -6 5 39 52 57 59 8 3 16 6 16 6 1 1 4 -12 6
-29z m628 9 c0 -5 -8 -9 -17 -10 -10 0 -44 -2 -75 -5 -32 -3 -58 -2 -58 3 0 5
19 10 42 12 23 1 43 3 44 4 7 7 64 3 64 -4z m440 -104 c0 -20 -5 -25 -24 -25
-33 0 -44 20 -21 37 28 20 45 16 45 -12z m213 10 c31 -4 58 -12 58 -19 1 -6 3
-41 5 -78 l3 -68 -45 3 c-44 3 -44 2 -44 -30 0 -18 -4 -33 -10 -33 -5 0 -10
18 -10 39 0 22 -4 43 -10 46 -5 3 -10 16 -10 28 0 20 0 20 14 1 16 -22 21 -19
29 16 6 23 3 25 -29 26 -36 0 -36 0 -31 -38 3 -21 1 -38 -4 -38 -5 0 -9 13 -9
28 0 16 -6 36 -13 46 -7 10 -11 33 -9 51 4 31 7 34 31 31 14 -2 52 -7 84 -11z
m-5068 -71 c202 -15 353 -30 356 -36 4 -7 35 -9 81 -6 41 3 85 1 98 -4 l23 -8
-7 -427 c-4 -235 -8 -428 -9 -429 -6 -6 -138 -6 -144 -1 -14 15 -19 6 -15 -28
3 -27 9 -35 24 -35 10 0 17 -4 14 -9 -3 -5 3 -11 13 -14 15 -3 19 0 18 14 -1
13 -9 19 -24 19 -14 0 -23 6 -23 15 0 12 14 15 70 14 l70 -1 0 -131 c0 -126
-9 -166 -17 -70 -2 26 -9 50 -16 55 -22 14 -56 8 -67 -12 -9 -16 -8 -20 5 -20
8 0 15 -4 15 -10 0 -5 -16 -10 -36 -10 -31 0 -35 2 -24 15 17 21 -4 20 -25 -1
-9 -9 -18 -15 -20 -12 -2 2 -7 84 -10 183 -4 99 -8 191 -10 205 -2 14 -7 135
-11 270 -3 135 -8 259 -9 275 -2 17 -3 42 -4 58 -1 24 -5 27 -36 27 -19 0 -35
-4 -35 -10 0 -5 -4 -10 -10 -10 -16 0 -12 15 13 43 12 15 32 27 44 27 12 0 25
5 28 10 4 6 -20 10 -65 10 -54 0 -71 -3 -67 -13 7 -18 69 -259 72 -277 1 -8 8
-35 14 -60 7 -25 15 -58 17 -73 3 -29 3 -29 -39 -24 -23 2 -62 0 -86 -6 -33
-8 -46 -7 -49 1 -2 7 -18 12 -35 12 -24 0 -28 -3 -17 -10 12 -8 9 -10 -12 -10
-16 0 -28 5 -28 10 0 6 -33 11 -77 11 -43 1 -91 4 -108 8 -21 5 -33 2 -42 -9
-9 -12 -16 -13 -30 -4 -10 6 -34 9 -53 6 -27 -3 -32 -2 -24 8 6 6 30 14 53 17
58 8 51 22 -11 21 -29 0 -73 0 -98 1 -42 2 -43 3 -22 14 12 7 19 17 15 21 -8
9 18 4 50 -9 11 -5 17 -3 17 7 0 13 -98 38 -157 38 -25 1 -26 2 -10 11 11 6
31 9 46 7 32 -5 60 16 35 26 -9 3 -43 6 -77 6 -67 0 -64 18 3 21 l35 1 -30 8
c-29 7 -29 8 10 9 55 2 84 21 33 21 -27 0 -38 4 -38 15 0 12 -8 14 -42 9 -30
-5 -39 -4 -34 4 4 7 20 12 37 12 37 0 39 20 2 21 -20 1 -16 4 16 10 67 13 61
19 -19 19 -67 0 -72 1 -54 15 10 8 27 15 37 15 16 0 26 20 9 20 -14 0 -53 41
-47 50 3 5 1 11 -5 15 -15 9 -2 25 21 25 10 0 19 5 19 11 0 7 -12 10 -29 7
-20 -3 -27 -1 -24 8 11 30 152 29 568 -2z m539 11 c-4 -8 -11 -12 -16 -9 -6 4
-5 10 3 15 19 12 19 11 13 -6z m4326 -38 l0 -42 -92 7 c-51 3 -108 11 -127 17
-19 6 -39 7 -45 3 -6 -4 -60 -8 -121 -8 -60 -1 -173 -3 -250 -4 -77 -1 -191
-4 -252 -7 l-113 -5 0 -29 c0 -18 -6 -32 -16 -36 -20 -7 -64 13 -82 38 -7 10
-20 19 -29 19 -9 0 -25 8 -35 17 -16 14 -21 15 -27 4 -5 -7 -6 -22 -4 -32 4
-14 0 -19 -16 -19 -12 0 -24 7 -27 15 -10 25 -34 17 -34 -10 0 -14 -4 -25 -10
-25 -5 0 -12 11 -16 25 -6 24 -34 36 -34 15 0 -5 -5 -10 -11 -10 -5 0 -8 4 -4
9 3 5 0 13 -6 16 -6 4 -13 -2 -16 -14 -3 -12 -11 -20 -17 -18 -12 4 -10 36 3
50 10 11 288 31 381 28 65 -2 275 7 845 37 77 4 143 6 148 4 4 -2 7 -22 7 -45z
m-5594 -208 c-3 -133 -8 -244 -11 -247 -3 -3 -5 7 -5 21 0 25 -3 27 -30 22
-17 -3 -30 -1 -30 5 0 5 7 10 16 10 13 0 14 3 5 13 -6 8 -8 17 -4 20 3 4 -1 7
-10 7 -10 0 -17 -4 -17 -10 0 -5 -7 -10 -15 -10 -8 0 -15 5 -15 10 0 6 -11 3
-25 -6 -15 -10 -25 -12 -25 -5 0 6 -5 11 -12 11 -6 0 -8 -3 -5 -7 4 -3 2 -12
-4 -20 -9 -10 -4 -13 24 -13 28 0 35 3 31 15 -7 18 5 19 29 1 23 -18 22 -26
-5 -27 -21 -1 -21 -2 -3 -6 39 -9 40 -23 1 -23 -20 0 -35 -4 -32 -9 6 -9 -113
-17 -249 -17 l-90 1 -7 205 c-4 113 -4 207 -1 210 13 14 34 -37 28 -70 -3 -19
-8 -53 -10 -75 l-5 -40 14 40 c7 22 21 67 31 100 10 33 20 66 22 73 4 8 -6 12
-30 12 -36 0 -59 16 -35 25 17 6 279 22 391 24 l89 1 -6 -241z m79 230 c-4 -6
-13 -8 -21 -5 -8 3 -14 -1 -14 -8 0 -8 6 -17 13 -19 7 -3 5 -6 -5 -6 -10 -1
-18 -5 -18 -11 0 -5 8 -10 18 -10 16 -1 16 -1 -1 -11 -9 -6 -15 -14 -12 -19 3
-5 1 -11 -4 -14 -5 -4 -11 20 -13 54 l-3 60 33 0 c21 0 31 -4 27 -11z m5843
-11 c7 -7 12 -27 12 -45 0 -43 -23 -44 -37 0 -15 49 -2 72 25 45z m-6958 -77
c0 -32 -22 -372 -70 -1071 -5 -80 -10 -162 -10 -182 0 -21 -4 -38 -9 -38 -4 0
-8 50 -7 110 0 61 3 110 6 110 4 0 4 38 -2 150 -1 8 3 23 7 33 7 17 3 18 -41
14 -46 -3 -49 -5 -52 -33 -3 -27 0 -30 30 -32 46 -4 51 -13 43 -74 l-8 -53
-10 35 -10 35 -7 -30 c-6 -23 -8 -25 -9 -8 0 12 -6 25 -12 29 -8 4 -8 9 0 17
6 6 11 15 11 20 0 5 -7 2 -15 -7 -18 -18 -19 -33 -2 -40 8 -3 7 -8 -6 -16 -15
-10 -18 -24 -16 -78 1 -37 -2 -88 -6 -114 -6 -42 -10 -47 -34 -46 -20 1 -26 6
-27 24 -1 15 4 24 12 24 8 0 14 5 14 11 0 6 -7 8 -16 5 -8 -3 -12 -2 -9 4 14
23 -13 46 -54 45 -47 -1 -67 -14 -25 -17 16 0 35 -2 43 -2 10 -1 15 -15 17
-41 1 -22 2 -46 3 -52 1 -8 15 -13 36 -13 25 0 35 -4 35 -15 0 -13 -22 -15
-162 -13 l-163 3 -2 140 c-9 850 -8 1135 7 1149 17 16 143 32 355 45 72 5 138
9 148 10 13 1 17 -7 17 -38z m2930 -1 c-10 -7 33 -10 131 -10 154 0 169 -4
169 -47 0 -16 -6 -23 -20 -23 -18 0 -19 -6 -15 -72 15 -256 28 -729 18 -708
-3 8 -13 21 -22 28 -14 12 -14 13 2 8 20 -6 22 6 6 36 -8 15 -8 19 0 14 6 -4
11 0 11 8 0 10 -6 13 -15 10 -8 -4 -15 -1 -15 5 0 6 4 11 8 11 4 0 8 9 8 20 0
11 -6 20 -13 20 -20 0 -16 40 5 41 15 1 15 2 1 6 -10 2 -16 14 -16 28 0 16 5
25 16 26 13 1 13 2 -2 6 -14 4 -16 8 -6 19 9 11 9 14 -1 14 -7 0 -10 8 -7 20
3 11 2 20 -2 20 -13 0 -6 51 9 60 13 8 13 10 -1 10 -17 0 -29 59 -29 143 0 20
-3 37 -7 37 -5 0 -7 -40 -5 -90 l3 -90 -88 -2 c-58 -1 -69 -3 -33 -5 81 -4
120 -13 120 -25 0 -6 -11 -8 -29 -5 -25 5 -31 2 -41 -23 -14 -35 -49 -41 -57
-10 -7 28 -23 25 -23 -5 0 -24 2 -25 75 -25 59 0 75 -3 75 -14 0 -8 -4 -18
-10 -21 -5 -3 -8 0 -5 7 4 10 -6 12 -41 9 -26 -2 -42 -6 -37 -10 19 -13 -2
-61 -27 -61 -11 0 -22 -4 -25 -10 -4 -6 20 -10 64 -10 39 0 71 -3 71 -7 0 -5
-27 -6 -60 -5 -34 2 -69 0 -78 -4 -11 -6 15 -11 73 -14 l90 -6 -90 -2 c-54 -1
-85 -6 -77 -11 11 -7 11 -9 -1 -14 -11 -4 -16 19 -26 126 -7 73 -21 206 -32
296 -11 91 -22 198 -24 238 -4 70 -4 73 18 73 18 0 19 -2 7 -10z m2570 0 c0
-5 -2 -10 -4 -10 -3 0 -8 5 -11 10 -3 6 -1 10 4 10 6 0 11 -4 11 -10z m-7470
-65 c0 -25 -23 -39 -51 -30 -11 4 -19 2 -19 -4 0 -6 8 -11 18 -11 13 0 14 -2
3 -9 -22 -14 -24 -98 -6 -247 18 -143 17 -181 -16 -444 -8 -63 -34 -304 -55
-510 -7 -58 -22 -111 -23 -77 -1 15 -12 17 -80 17 -50 0 -83 -4 -87 -12 -5 -7
-2 -9 8 -6 8 4 30 3 49 -2 33 -7 14 -7 -196 0 l-60 2 40 10 c22 5 63 13 90 16
45 6 50 10 53 35 l3 27 92 0 92 0 2 58 c4 102 24 601 33 822 5 118 12 226 16
239 5 17 4 22 -4 17 -18 -11 -15 29 3 44 8 7 15 21 15 31 0 11 5 19 10 19 6 0
10 7 10 15 0 16 39 36 53 28 4 -2 7 -15 7 -28z m910 13 c0 -21 -2 -21 -122
-15 -66 4 -144 8 -172 8 -28 1 14 7 94 14 216 18 200 18 200 -7z m7384 6 c3
-9 6 -20 6 -25 0 -14 -43 -28 -55 -18 -6 4 -31 3 -55 -2 -25 -6 -62 -8 -83 -6
-20 3 -70 1 -110 -4 -39 -5 -93 -7 -119 -3 -42 5 -48 9 -48 30 0 13 1 24 3 24
1 0 94 3 207 7 113 3 207 7 209 9 11 10 40 2 45 -12z m230 -36 c6 -28 2 -48
-8 -37 -8 10 -15 69 -7 69 5 0 11 -14 15 -32z m-5467 16 c-3 -3 -12 -4 -19 -1
-8 3 -5 6 6 6 11 1 17 -2 13 -5z m5593 -44 c0 -20 -2 -22 -10 -10 -5 8 -10 26
-10 40 0 20 2 22 10 10 5 -8 10 -26 10 -40z m212 24 c4 -3 8 -18 8 -35 0 -16
5 -29 12 -29 9 0 8 -3 -1 -12 -11 -10 -14 -10 -18 0 -3 6 -9 12 -14 12 -6 0
-7 -5 -4 -10 11 -17 -25 -23 -43 -8 -27 24 -55 31 -48 13 3 -8 1 -15 -3 -15
-5 0 -12 7 -15 16 -4 9 -9 14 -13 11 -13 -14 -29 14 -25 44 l5 31 75 -6 c41
-4 79 -9 84 -12z m87 -16 c0 -27 -2 -29 -8 -13 -5 11 -6 26 -4 33 8 21 13 13
12 -20z m-4917 5 c-10 -4 -10 -8 -1 -19 9 -11 8 -14 -8 -14 -12 0 -19 7 -19
20 0 14 7 20 21 19 11 0 14 -3 7 -6z m5078 3 c0 -3 -4 -8 -10 -11 -5 -3 -10
-1 -10 4 0 6 5 11 10 11 6 0 10 -2 10 -4z m178 -3 c-10 -2 -28 -2 -40 0 -13 2
-5 4 17 4 22 1 32 -1 23 -4z m-990 -60 c3 -43 -2 -49 -32 -37 -11 4 -16 19
-16 46 0 35 2 39 23 36 18 -2 23 -10 25 -45z m-248 17 c0 -11 4 -20 9 -20 5 0
7 9 4 20 -5 19 0 20 76 20 l81 0 -2 -30 c-2 -24 -7 -30 -26 -30 -20 0 -22 3
-13 14 10 12 8 17 -8 26 -22 11 -24 9 -21 -27 1 -21 -3 -23 -42 -23 -24 0 -52
-2 -63 -5 -12 -3 -31 5 -48 20 -24 21 -27 28 -17 40 7 8 25 15 41 15 22 0 29
-5 29 -20z m392 -48 c-29 -9 -48 -10 -54 -4 -16 16 1 32 33 32 23 0 29 4 29
23 0 20 2 19 18 -8 l19 -30 -45 -13z m-572 43 c0 -8 -4 -15 -9 -15 -5 0 -11 7
-15 15 -3 9 0 15 9 15 8 0 15 -7 15 -15z m1495 5 c3 -6 3 -19 0 -31 -5 -16
-13 -19 -36 -15 -16 3 -42 9 -59 12 -46 9 -38 32 13 37 23 2 50 4 59 5 9 1 20
-3 23 -8z m-215 -10 c0 -9 -50 -23 -57 -16 -3 2 -2 9 1 14 7 11 56 13 56 2z
m-465 -15 c0 -5 -10 -9 -22 -10 -13 0 -23 4 -23 10 0 6 10 10 23 10 12 -1 22
-5 22 -10z m-155 -5 c0 -5 -7 -10 -15 -10 -8 0 -15 5 -15 10 0 6 7 10 15 10 8
0 15 -4 15 -10z m90 0 c0 -5 -7 -10 -15 -10 -8 0 -15 5 -15 10 0 6 7 10 15 10
8 0 15 -4 15 -10z m-4583 -26 c-2 -2 -12 -1 -22 3 -18 6 -18 7 1 13 17 7 33
-5 21 -16z m-4181 -46 c-3 -35 -13 -155 -21 -268 -40 -532 -61 -748 -75 -770
-17 -28 -27 1 -19 57 5 32 27 258 49 503 22 245 43 466 46 493 9 72 27 58 20
-15z m7384 46 c0 -15 -27 -18 -54 -8 -23 9 -12 19 23 20 20 1 31 -4 31 -12z
m124 -4 c-6 -6 -19 -7 -30 -3 -17 6 -17 8 6 13 29 8 38 4 24 -10z m44 2 c2 -7
-3 -12 -12 -12 -9 0 -16 7 -16 16 0 17 22 14 28 -4z m102 10 c0 -13 -12 -22
-22 -16 -10 6 -1 24 13 24 5 0 9 -4 9 -8z m68 -11 c3 -8 -1 -12 -9 -9 -7 2
-15 10 -17 17 -3 8 1 12 9 9 7 -2 15 -10 17 -17z m-273 -11 c-3 -5 -10 -10
-16 -10 -5 0 -9 5 -9 10 0 6 7 10 16 10 8 0 12 -4 9 -10z m-10 -91 c4 -6 7
-26 7 -46 0 -20 7 -44 17 -54 9 -10 27 -39 40 -64 l24 -45 -23 -25 -22 -24
-48 30 c-54 33 -70 36 -70 12 -1 -16 -2 -16 -13 -2 -7 9 -17 14 -23 12 -7 -2
-19 3 -27 12 -9 8 -22 15 -30 15 -9 0 -17 14 -22 36 -7 37 1 57 13 36 6 -8 16
-4 35 14 15 14 27 20 27 14 0 -21 20 -9 36 23 31 60 63 83 79 56z m995 -114
c0 -43 -1 -45 -30 -45 -24 0 -31 5 -36 28 -3 15 -8 35 -11 45 -4 14 2 17 36
17 l41 0 0 -45z m54 29 c9 -24 7 -74 -3 -74 -12 0 -21 26 -21 61 0 31 14 39
24 13z m-4627 -20 c-3 -3 -12 -4 -19 -1 -8 3 -5 6 6 6 11 1 17 -2 13 -5z
m-187 -14 c0 -11 -69 -11 -175 0 -64 6 -60 7 53 8 76 1 122 -2 122 -8z m-903
-10 c54 0 64 -3 59 -15 -3 -9 0 -15 8 -15 8 0 16 6 19 13 3 9 8 9 21 -2 9 -8
14 -21 11 -32 -6 -19 10 -35 19 -20 3 5 51 9 106 9 56 0 97 -4 94 -9 -3 -5
-31 -9 -62 -9 -35 0 -52 -4 -44 -9 10 -6 8 -10 -8 -14 -27 -7 -21 -32 7 -31
18 0 53 -25 36 -26 -158 -10 -274 -10 -268 -1 3 6 13 11 21 11 8 0 14 5 14 11
0 7 11 8 31 4 36 -8 119 2 119 14 0 12 -54 21 -58 10 -4 -11 -39 -12 -44 -1
-1 4 -24 6 -49 4 -41 -3 -46 -6 -46 -28 0 -14 -12 -35 -27 -49 -21 -19 -23
-25 -10 -25 10 0 14 -5 10 -15 -3 -10 3 -17 19 -21 14 -3 22 -10 19 -15 -3 -5
2 -9 11 -9 9 0 13 5 10 10 -3 6 0 10 8 10 16 0 30 -24 20 -34 -4 -3 -34 -6
-67 -6 -43 0 -57 -3 -46 -10 8 -5 28 -10 43 -10 16 0 26 -4 22 -10 -4 -6 8
-10 29 -10 20 0 36 5 36 10 0 6 8 10 18 10 14 0 15 -2 2 -10 -10 -6 -11 -10
-2 -10 6 0 12 -4 12 -10 0 -6 -45 -9 -117 -9 -65 1 -108 4 -95 6 12 2 22 12
23 21 0 9 0 88 -1 176 -1 143 0 158 15 152 9 -3 46 -6 82 -6z m1339 0 l82 0 4
-31 5 -31 -106 6 c-58 4 -146 7 -196 7 -114 0 -196 9 -189 20 3 5 23 9 45 9
45 0 53 16 12 24 -16 2 37 3 117 0 80 -2 182 -4 226 -4z m-1078 -6 c29 -8 29
-34 -2 -34 -13 0 -43 -3 -68 -6 -37 -5 -46 -3 -52 11 -3 9 -4 21 0 26 6 10 87
12 122 3z m647 -14 c4 -6 -23 -10 -75 -10 -52 0 -79 4 -75 10 3 6 37 10 75 10
38 0 72 -4 75 -10z m-212 -7 c-7 -2 -19 -2 -25 0 -7 3 -2 5 12 5 14 0 19 -2
13 -5z m217 -24 c0 -5 -11 -9 -25 -9 -14 0 -25 4 -25 9 0 5 11 9 25 9 14 0 25
-4 25 -9z m45 -49 c-3 -6 0 -10 8 -10 8 0 18 11 21 25 4 14 13 25 20 25 17 0
28 -37 12 -44 -6 -2 5 -5 24 -6 19 -1 44 -5 55 -10 13 -6 -9 -9 -67 -9 l-88
-1 0 38 c1 30 3 34 11 19 5 -9 7 -22 4 -27z m218 25 c-3 -12 -58 -22 -90 -17
-12 2 -24 10 -27 17 -3 9 11 12 57 11 36 0 61 -5 60 -11z m97 5 c14 -4 19 -8
13 -9 -7 -1 -13 -10 -13 -21 0 -17 7 -20 50 -20 28 0 50 5 50 10 0 19 26 10
27 -9 2 -18 -7 -19 -133 -19 -74 -1 -134 3 -134 7 0 15 27 20 78 16 l50 -4
-12 24 c-9 21 -13 23 -22 10 -12 -16 -24 -10 -24 12 0 14 30 16 70 3z m1206
-25 c18 -14 17 -15 -15 -13 -19 2 -36 9 -39 16 -5 17 30 15 54 -3z m3258 -26
c16 -33 12 -59 -10 -59 -8 0 -17 -7 -21 -17 -5 -14 -8 -13 -14 6 -5 12 -20 26
-34 31 -29 11 -32 26 -8 52 26 29 69 23 87 -13z m-4824 -9 c0 -15 -6 -20 -27
-19 -22 1 -24 2 -8 7 16 4 11 7 -20 17 l-40 13 48 1 c41 1 47 -2 47 -19z
m3706 -142 c17 -191 16 -282 -2 -133 -18 159 -28 301 -19 293 4 -3 13 -75 21
-160z m-3769 126 c-3 -3 -12 -4 -19 -1 -8 3 -5 6 6 6 11 1 17 -2 13 -5z m333
-14 c56 -7 50 -8 -40 -5 -220 8 -208 7 -175 14 33 7 114 4 215 -9z m-363 -16
c-3 -3 -12 -4 -19 -1 -8 3 -5 6 6 6 11 1 17 -2 13 -5z m1630 0 c-3 -3 -12 -4
-19 -1 -8 3 -5 6 6 6 11 1 17 -2 13 -5z m-1447 -24 c0 -6 58 -10 153 -11 83
-1 179 -5 212 -9 34 -5 -43 -6 -180 -3 -132 3 -242 6 -244 8 -1 2 0 8 4 14 8
14 55 14 55 1z m337 4 c-3 -3 -12 -4 -19 -1 -8 3 -5 6 6 6 11 1 17 -2 13 -5z
m-427 -13 c0 -6 -4 -13 -10 -16 -5 -3 -10 -2 -10 3 0 5 -27 9 -61 8 -33 0 -66
2 -72 6 -7 4 25 8 71 8 45 0 82 -4 82 -9z m-882 -18 c-10 -2 -26 -2 -35 0 -10
3 -2 5 17 5 19 0 27 -2 18 -5z m5582 -30 c0 -7 -4 -13 -10 -13 -5 0 -10 7 -10
15 0 8 -6 15 -12 15 -9 0 -8 3 2 10 15 9 30 -4 30 -27z m30 5 c0 -7 -5 -20
-10 -28 -8 -12 -10 -9 -10 13 0 15 5 27 10 27 6 0 10 -6 10 -12z m102 -20 c-9
-9 -12 -7 -12 12 0 19 3 21 12 12 9 -9 9 -15 0 -24z m-5636 2 c0 -14 -7 -20
-24 -20 -20 0 -22 3 -13 14 9 11 9 15 -1 19 -7 3 -2 6 12 6 19 1 26 -4 26 -19z
m722 3 c-10 -2 -26 -2 -35 0 -10 3 -2 5 17 5 19 0 27 -2 18 -5z m-623 -13 c4
-6 -9 -10 -29 -10 -20 0 -36 3 -36 8 0 11 58 13 65 2z m65 0 c12 -8 9 -10 -13
-10 -16 0 -26 4 -22 10 8 12 16 12 35 0z m1160 -1 c0 -10 -440 -3 -449 7 -3 2
97 4 222 3 130 -1 227 -5 227 -10z m-1087 -6 c-7 -2 -19 -2 -25 0 -7 3 -2 5
12 5 14 0 19 -2 13 -5z m2104 1 c-3 -3 -12 -4 -19 -1 -8 3 -5 6 6 6 11 1 17
-2 13 -5z m-2557 -18 c0 -2 -7 -7 -16 -10 -8 -3 -12 -2 -9 4 6 10 25 14 25 6z
m285 -6 c-3 -5 -14 -10 -23 -9 -14 0 -13 2 3 9 27 11 27 11 20 0z m1135 0
c-20 -13 -33 -13 -25 0 3 6 14 10 23 10 15 0 15 -2 2 -10z m5388 -10 c-7 -11
-15 -15 -17 -9 -2 6 3 15 10 20 20 12 21 11 7 -11z m66 -1 c-3 -5 -10 -7 -15
-3 -5 3 -7 10 -3 15 3 5 10 7 15 3 5 -3 7 -10 3 -15z m-5551 4 c-7 -2 -19 -2
-25 0 -7 3 -2 5 12 5 14 0 19 -2 13 -5z m1173 -8 c-18 -14 -14 -15 45 -17 l64
-2 -80 -6 -80 -6 79 -2 c97 -2 96 -10 -2 -13 l-72 -2 0 -36 c0 -25 6 -41 20
-51 18 -13 19 -15 4 -21 -10 -3 -19 -15 -21 -27 -3 -21 1 -22 60 -23 44 0 56
-3 42 -9 -20 -8 -20 -9 1 -9 11 -1 29 -10 39 -21 18 -20 17 -20 -26 -21 -108
-3 -104 -1 -102 -33 1 -16 8 -33 15 -38 18 -11 88 -10 88 2 0 6 -9 10 -19 10
-32 0 -50 11 -44 26 3 9 21 14 54 14 53 0 54 -1 39 -30 -8 -16 -7 -18 4 -14
11 4 15 -8 18 -53 2 -32 2 -60 0 -63 -2 -3 -39 -7 -81 -8 l-78 -4 -6 94 c-13
182 -28 343 -33 361 -5 15 1 17 43 17 44 -1 47 -2 29 -15z m4278 -47 c4 -35 8
-78 9 -95 1 -18 5 -33 10 -33 4 0 7 -12 7 -26 0 -14 4 -33 10 -43 5 -10 10
-44 11 -75 1 -31 9 -69 17 -84 17 -30 32 -152 19 -152 -4 0 -10 7 -13 15 -4 8
-10 12 -15 9 -13 -8 -11 -58 3 -72 8 -8 8 -12 1 -12 -15 0 -33 55 -33 103 l0
39 -142 -3 c-167 -3 -416 10 -438 22 -13 8 534 5 571 -3 20 -4 24 51 7 93 -12
28 -19 33 -49 33 l-34 1 2 72 c3 77 22 145 31 108 2 -10 -1 -21 -7 -23 -7 -2
-11 -31 -11 -72 l0 -68 28 7 c24 7 27 12 26 47 -1 21 -4 55 -8 74 -25 129 -31
200 -18 200 5 0 13 -28 16 -62z m-2621 33 c4 -1 7 -10 7 -21 0 -21 -24 -28
-35 -10 -12 20 -21 9 -17 -20 2 -17 9 -30 16 -29 26 3 34 -3 38 -29 4 -26 2
-28 -33 -27 l-37 0 -10 65 c-10 71 -6 81 37 75 14 -2 29 -4 34 -4z m-7658 -31
c3 -5 1 -10 -4 -10 -6 0 -11 5 -11 10 0 6 2 10 4 10 3 0 8 -4 11 -10z m4750 0
c3 -6 -4 -10 -17 -10 -18 0 -20 2 -8 10 19 12 18 12 25 0z m5552 -22 c-3 -8
-6 -5 -6 6 -1 11 2 17 5 13 3 -3 4 -12 1 -19z m57 -27 c9 -28 16 -56 16 -65 0
-8 7 -22 16 -31 19 -19 14 -28 -10 -19 -9 3 -16 14 -16 23 0 9 -7 34 -15 56
-13 38 -20 85 -11 85 2 0 11 -22 20 -49z m-10949 29 c3 -5 -1 -10 -10 -10 -9
0 -13 5 -10 10 3 6 8 10 10 10 2 0 7 -4 10 -10z m85 0 c0 -5 -4 -10 -10 -10
-5 0 -10 5 -10 10 0 6 5 10 10 10 6 0 10 -4 10 -10z m4487 -12 c-3 -8 -6 -5
-6 6 -1 11 2 17 5 13 3 -3 4 -12 1 -19z m-4277 2 c0 -5 -4 -10 -10 -10 -5 0
-10 5 -10 10 0 6 5 10 10 10 6 0 10 -4 10 -10z m3959 0 c84 0 75 -8 -12 -11
-52 -2 -67 -5 -63 -16 3 -7 1 -13 -4 -13 -21 0 -9 -20 13 -21 21 0 21 -1 2 -9
-15 -7 -9 -9 26 -9 47 -1 84 -23 57 -34 -7 -3 10 -6 37 -6 28 -1 56 -5 64 -10
8 -5 -23 -7 -80 -5 -52 2 -98 4 -103 4 -5 0 -3 7 4 15 11 13 7 15 -26 14 -34
0 -36 -1 -16 -10 28 -11 20 -30 -10 -25 -22 3 -24 9 -28 91 -3 59 -3 58 38 51
20 -3 66 -6 101 -6z m2431 3 c0 -5 -14 -9 -30 -10 -18 -1 -28 2 -25 7 7 12 55
14 55 3z m-2277 -10 c-13 -2 -33 -2 -45 0 -13 2 -3 4 22 4 25 0 35 -2 23 -4z
m114 1 c-3 -3 -12 -4 -19 -1 -8 3 -5 6 6 6 11 1 17 -2 13 -5z m741 -1 c-21 -2
-57 -2 -80 0 -24 2 -7 4 37 4 44 0 63 -2 43 -4z m119 1 c-3 -3 -12 -4 -19 -1
-8 3 -5 6 6 6 11 1 17 -2 13 -5z m-1160 -30 c-3 -3 -12 -4 -19 -1 -8 3 -5 6 6
6 11 1 17 -2 13 -5z m70 0 c-3 -3 -12 -4 -19 -1 -8 3 -5 6 6 6 11 1 17 -2 13
-5z m6623 -19 c0 -8 -2 -15 -4 -15 -2 0 -6 7 -10 15 -3 8 -1 15 4 15 6 0 10
-7 10 -15z m-4220 -5 c-13 -8 -13 -10 0 -10 10 0 11 -3 3 -11 -8 -8 -20 -7
-44 4 -19 8 -41 18 -49 20 -8 3 12 6 45 6 42 1 56 -2 45 -9z m76 -24 c5 -29
-19 -38 -30 -10 -9 24 -6 42 4 19 8 -19 9 -18 9 4 1 30 10 23 17 -13z m-1573
17 c-7 -2 -19 -2 -25 0 -7 3 -2 5 12 5 14 0 19 -2 13 -5z m184 1 c-3 -3 -12
-4 -19 -1 -8 3 -5 6 6 6 11 1 17 -2 13 -5z m-1002 -14 c-3 -5 2 -10 12 -11 10
-1 2 -5 -17 -9 -42 -10 -46 -8 -25 14 18 17 40 22 30 6z m855 -10 c11 -7 -1
-10 -40 -10 -39 0 -51 3 -40 10 8 5 26 10 40 10 14 0 32 -5 40 -10z m210 0 c0
-5 -15 -10 -32 -9 -31 1 -32 1 -8 9 35 11 40 11 40 0z m-900 -4 c0 -9 -30 -14
-35 -6 -4 6 3 10 14 10 12 0 21 -2 21 -4z m5480 -6 c0 -5 -9 -10 -20 -10 -11
0 -20 5 -20 10 0 6 9 10 20 10 11 0 20 -4 20 -10z m-10920 -20 c0 -27 -25 -36
-56 -20 -31 17 -31 30 2 30 19 0 25 -4 20 -15 -3 -8 -2 -15 3 -15 5 0 11 9 14
20 7 26 17 26 17 0z m70 4 c0 -15 -9 -17 -34 -8 -20 8 -13 19 13 21 12 1 21
-4 21 -13z m240 6 c0 -5 -4 -10 -10 -10 -5 0 -10 5 -10 10 0 6 5 10 10 10 6 0
10 -4 10 -10z m10423 3 c-7 -2 -21 -2 -30 0 -10 3 -4 5 12 5 17 0 24 -2 18 -5z
m-5333 -23 c0 -11 -14 -11 -50 0 -22 7 -21 8 13 9 20 1 37 -3 37 -9z m2269
-72 c-2 -76 -2 -79 -9 -33 -4 28 -10 58 -14 68 -5 10 -4 17 3 17 6 0 11 7 11
15 0 8 2 15 5 15 3 0 4 -37 4 -82z m3126 72 c13 -5 14 -9 5 -9 -8 0 -24 4 -35
9 -13 5 -14 9 -5 9 8 0 24 -4 35 -9z m-5478 -6 c-3 -3 -12 -4 -19 -1 -8 3 -5
6 6 6 11 1 17 -2 13 -5z m-264 -21 c-7 -2 -21 -2 -30 0 -10 3 -4 5 12 5 17 0
24 -2 18 -5z m74 1 c-3 -3 -12 -4 -19 -1 -8 3 -5 6 6 6 11 1 17 -2 13 -5z
m223 -10 c0 -2 -7 -4 -15 -4 -8 0 -15 4 -15 10 0 5 7 7 15 4 8 -4 15 -8 15
-10z m790 12 c0 -8 -48 -12 -66 -5 -13 5 -7 8 24 8 23 1 42 -1 42 -3z m4737
-2 c-3 -3 -12 -4 -19 -1 -8 3 -5 6 6 6 11 1 17 -2 13 -5z m-10107 -19 c-7 -9
-15 -13 -17 -11 -7 7 7 26 19 26 6 0 6 -6 -2 -15z m4223 8 c-7 -2 -21 -2 -30
0 -10 3 -4 5 12 5 17 0 24 -2 18 -5z m57 -13 c0 -5 -5 -10 -11 -10 -5 0 -7 5
-4 10 3 6 8 10 11 10 2 0 4 -4 4 -10z m-3470 -14 c0 -17 -18 -25 -42 -18 -34
8 -16 27 30 31 6 0 12 -5 12 -13z m3543 7 c-7 -2 -19 -2 -25 0 -7 3 -2 5 12 5
14 0 19 -2 13 -5z m994 -13 c-1 -15 -8 -20 -32 -19 -28 0 -29 1 -7 10 13 5 20
13 17 19 -3 5 1 10 9 10 9 0 14 -8 13 -20z m146 13 c-7 -2 -19 -2 -25 0 -7 3
-2 5 12 5 14 0 19 -2 13 -5z m4864 -24 c-10 -6 -24 -9 -30 -6 -7 2 -21 0 -32
-4 -14 -6 -7 -8 25 -6 39 1 45 -1 45 -18 0 -16 -8 -21 -39 -23 -42 -4 -56 8
-56 46 0 20 5 22 53 22 41 -1 48 -3 34 -11z m-6067 -9 c0 -5 -6 -10 -12 -11
-7 0 -4 -4 7 -9 18 -8 17 -9 -6 -9 -25 -1 -45 20 -32 33 10 10 43 7 43 -4z
m85 0 c3 -5 -1 -10 -9 -10 -9 0 -16 5 -16 10 0 6 4 10 9 10 6 0 13 -4 16 -10z
m812 4 c-3 -3 -12 -4 -19 -1 -8 3 -5 6 6 6 11 1 17 -2 13 -5z m316 -1 c-7 -2
-19 -2 -25 0 -7 3 -2 5 12 5 14 0 19 -2 13 -5z m-1076 -9 c-3 -3 -12 -4 -19
-1 -8 3 -5 6 6 6 11 1 17 -2 13 -5z m91 -1 c-10 -2 -26 -2 -35 0 -10 3 -2 5
17 5 19 0 27 -2 18 -5z m182 -3 c0 -5 -4 -10 -10 -10 -5 0 -10 5 -10 10 0 6 5
10 10 10 6 0 10 -4 10 -10z m1200 -1 c0 -11 -37 -12 -43 -1 -3 4 6 8 19 8 13
1 24 -2 24 -7z m-55 -24 c19 2 35 0 35 -5 0 -6 -20 -10 -45 -10 -40 0 -45 2
-45 23 1 19 2 20 11 5 7 -13 19 -17 44 -13z m85 10 c0 -8 -4 -15 -10 -15 -5 0
-10 7 -10 15 0 8 5 15 10 15 6 0 10 -7 10 -15z m-1430 -5 c0 -5 -11 -10 -25
-10 -14 0 -25 5 -25 10 0 6 11 10 25 10 14 0 25 -4 25 -10z m-67 -7 c-7 -2
-21 -2 -30 0 -10 3 -4 5 12 5 17 0 24 -2 18 -5z m6046 -10 c-2 -26 -15 -42
-28 -34 -17 11 -7 41 14 41 8 0 15 -3 14 -7z m-6209 -13 c0 -5 -4 -10 -10 -10
-5 0 -10 5 -10 10 0 6 5 10 10 10 6 0 10 -4 10 -10z m430 -10 c0 -5 -2 -10 -4
-10 -3 0 -8 5 -11 10 -3 6 -1 10 4 10 6 0 11 -4 11 -10z m647 4 c-3 -3 -12 -4
-19 -1 -8 3 -5 6 6 6 11 1 17 -2 13 -5z m3243 -10 c0 -2 -17 -4 -37 -3 -29 0
-33 2 -18 8 18 7 55 4 55 -5z m51 -11 c13 -16 12 -17 -3 -4 -10 7 -18 15 -18
17 0 8 8 3 21 -13z m-4347 -3 c20 0 15 -32 -6 -38 -10 -2 -18 -11 -18 -18 0
-8 -4 -14 -10 -14 -5 0 -10 18 -10 41 0 33 3 40 16 35 9 -3 21 -6 28 -6z m186
-11 c-11 -8 -12 -12 -2 -16 6 -2 12 -9 12 -15 0 -6 8 -17 18 -24 15 -12 15
-13 -7 -11 -31 2 -67 37 -63 60 2 11 13 17 30 17 22 0 24 -2 12 -11z m4427 5
c-3 -3 -12 -4 -19 -1 -8 3 -5 6 6 6 11 1 17 -2 13 -5z m-1997 -29 c0 -20 -5
-25 -25 -25 -17 0 -23 4 -19 15 3 8 11 13 17 12 7 -1 11 4 10 11 -2 6 2 12 7
12 6 0 10 -11 10 -25z m-2284 6 c-8 -12 -55 -20 -62 -10 -2 4 -12 6 -22 3 -14
-5 -15 -4 -2 5 18 13 94 15 86 2z m71 -38 c-3 -10 -5 -4 -5 12 0 17 2 24 5 18
2 -7 2 -21 0 -30z m3723 17 c0 -5 -4 -10 -10 -10 -5 0 -10 5 -10 10 0 6 5 10
10 10 6 0 10 -4 10 -10z m-2607 -30 c-7 -28 -13 -25 -13 6 0 14 4 23 9 20 5
-3 7 -15 4 -26z m2947 16 c0 -8 -5 -18 -12 -22 -7 -4 -8 -3 -4 4 4 8 0 12 -11
12 -15 0 -16 2 -3 10 21 14 30 12 30 -4z m-4410 -11 c0 -12 13 -15 60 -15 36
0 60 -4 60 -11 0 -6 -8 -8 -19 -4 -11 3 -22 1 -26 -5 -4 -6 5 -11 22 -11 22
-2 19 -3 -12 -8 -48 -8 -74 -3 -53 10 14 9 16 9 -54 13 -20 2 -35 -1 -33 -4 3
-4 -5 -10 -17 -14 -17 -4 -20 -8 -11 -17 7 -7 46 -11 108 -10 54 1 94 -2 91
-7 -3 -5 -19 -8 -36 -7 -34 2 -41 -12 -8 -17 12 -2 23 -9 26 -17 4 -10 -4 -12
-34 -7 -22 3 -67 6 -101 5 -35 0 -63 4 -64 8 0 4 -1 31 -2 58 l-2 50 43 3 c23
2 42 7 42 13 0 5 5 9 10 9 6 0 10 -7 10 -15z m270 5 c0 -5 -4 -10 -10 -10 -16
0 -12 -22 8 -36 12 -10 13 -13 3 -14 -18 0 -63 49 -56 61 8 12 55 12 55 -1z
m3924 -39 c-18 -16 -60 -45 -94 -65 -59 -35 -63 -36 -76 -19 -7 10 -13 27 -13
38 0 17 2 16 10 -5 6 -13 12 -26 13 -28 6 -5 96 44 141 77 51 38 59 38 19 2z
m-909 -13 l8 -23 4 23 c2 12 8 22 12 22 5 0 16 -10 24 -22 14 -20 16 -21 16
-5 1 24 21 12 21 -12 0 -16 -8 -18 -62 -17 -61 1 -63 2 -66 29 -3 21 1 27 16
27 12 0 23 -9 27 -22z m-1750 2 c3 -5 1 -10 -4 -10 -6 0 -11 5 -11 10 0 6 2
10 4 10 3 0 8 -4 11 -10z m80 0 c3 -5 1 -10 -4 -10 -6 0 -11 5 -11 10 0 6 2
10 4 10 3 0 8 -4 11 -10z m45 6 c0 -11 -19 -15 -25 -6 -3 5 1 10 9 10 9 0 16
-2 16 -4z m40 0 c0 -3 -4 -8 -10 -11 -5 -3 -10 -1 -10 4 0 6 5 11 10 11 6 0
10 -2 10 -4z m710 -5 c0 -4 -11 -6 -25 -3 -14 2 -25 6 -25 8 0 2 11 4 25 4 14
0 25 -4 25 -9z m40 5 c0 -3 -4 -8 -10 -11 -5 -3 -10 -1 -10 4 0 6 5 11 10 11
6 0 10 -2 10 -4z m30 -6 c0 -5 -4 -10 -10 -10 -5 0 -10 5 -10 10 0 6 5 10 10
10 6 0 10 -4 10 -10z m70 6 c0 -3 -4 -8 -10 -11 -5 -3 -10 -1 -10 4 0 6 5 11
10 11 6 0 10 -2 10 -4z m4217 -33 c-3 -10 -5 -4 -5 12 0 17 2 24 5 18 2 -7 2
-21 0 -30z m-6424 -16 c22 -43 17 -56 -18 -49 -27 5 -35 22 -10 22 9 0 15 9
15 25 0 18 -4 23 -15 19 -10 -4 -15 0 -15 11 0 27 23 12 43 -28z m1112 33 c-3
-5 -10 -10 -16 -10 -5 0 -9 5 -9 10 0 6 7 10 16 10 8 0 12 -4 9 -10z m495 -10
c0 -12 -84 -12 -120 0 -18 6 -4 8 48 9 42 1 72 -3 72 -9z m2096 -27 c-10 -10
-19 5 -10 18 6 11 8 11 12 0 2 -7 1 -15 -2 -18z m-3777 -36 c9 -2 -23 -4 -71
-5 -55 -1 -88 3 -88 9 0 6 12 8 29 4 17 -3 32 -2 36 4 3 6 17 11 31 11 13 0
24 6 25 13 0 6 5 2 11 -10 6 -12 18 -24 27 -26z m-3858 -7 l-6 -30 -193 -3
c-108 -2 -196 1 -199 6 -3 5 -23 7 -44 5 -39 -4 -53 12 -26 29 12 7 203 18
383 21 l91 2 -6 -30z m2825 -42 c-3 -39 -8 -72 -9 -73 -1 -1 -49 2 -107 6 -58
4 -156 7 -217 8 l-113 1 0 60 0 60 208 3 c114 1 216 3 226 5 18 2 18 -3 12
-70z m2325 30 c1 -24 3 -63 4 -88 2 -54 -4 -82 -15 -75 -11 7 -12 205 0 205 6
0 11 -19 11 -42z m40 5 l1 -38 9 33 c5 17 12 32 14 32 3 0 4 -44 3 -97 -1 -54
-3 -77 -5 -50 -2 26 -9 47 -15 47 -6 0 -8 -13 -4 -34 8 -40 -2 -75 -15 -54
-12 19 -11 198 1 198 6 0 10 -17 11 -37z m-121 -31 l0 -57 -97 -3 c-54 -2
-100 -6 -102 -8 -2 -2 41 -4 97 -4 88 0 101 -2 104 -17 6 -29 -3 -52 -23 -58
-20 -7 -26 -30 -9 -38 6 -3 5 -4 -2 -3 -7 1 -15 11 -17 22 -2 10 -8 22 -15 26
-15 10 -266 10 -266 1 0 -5 43 -7 95 -5 63 2 95 0 95 -7 0 -6 -23 -11 -52 -12
l-53 -1 45 -11 45 -11 -60 -9 c-37 -6 -126 -6 -235 0 -190 11 -300 7 -300 -9
0 -7 29 -9 88 -5 48 3 107 2 132 -2 25 -4 -79 -6 -230 -4 -302 4 -362 7 -380
18 -6 4 -20 -1 -31 -11 -20 -18 -20 -18 -9 11 8 22 8 30 -2 37 -20 12 -48 9
-48 -6 0 -8 -11 -17 -25 -20 -14 -4 -25 -11 -25 -16 0 -6 -5 -10 -11 -10 -5 0
-7 5 -4 10 10 16 -24 24 -52 11 -14 -6 -28 -9 -32 -5 -3 4 0 9 7 11 21 8 13
21 -20 32 -28 10 -34 9 -48 -8 -10 -14 -19 -18 -29 -12 -8 5 -21 6 -30 3 -10
-4 -8 3 7 18 29 32 28 39 -8 38 -29 -1 -60 16 -49 27 3 2 40 5 82 6 45 1 74 5
71 11 -9 14 -147 7 -162 -9 -8 -8 -12 -26 -10 -43 3 -17 2 -28 0 -25 -3 3 -11
0 -17 -5 -20 -17 -28 20 -9 41 11 12 15 33 13 71 l-3 53 94 0 c52 -1 231 -5
396 -9 214 -7 388 -5 600 4 391 17 460 22 457 38 -2 6 6 12 17 12 18 0 20 -7
20 -58z m41 21 c2 -34 1 -115 0 -150 -1 -7 -5 -13 -11 -13 -6 0 -10 40 -10
100 0 60 4 100 10 100 6 0 11 -17 11 -37z m-5614 5 c-3 -8 -6 -5 -6 6 -1 11 2
17 5 13 3 -3 4 -12 1 -19z m8463 2 c0 -5 -8 -10 -17 -10 -15 0 -16 2 -3 10 19
12 20 12 20 0z m-6550 -64 c0 -14 -4 -28 -10 -31 -5 -3 -10 -1 -10 6 0 8 -5 7
-17 -2 -15 -13 -16 -12 -11 9 7 25 -4 29 -22 7 -17 -20 -29 -19 -26 3 2 10 15
20 32 23 56 12 64 10 64 -15z m-155 -11 c0 -17 -8 -21 -57 -25 -41 -4 -59 -2
-63 7 -6 18 -50 16 -65 -2 -16 -19 -34 -19 -49 -1 -18 21 -1 27 102 36 123 10
132 9 132 -15z m36 12 c-1 -4 -1 -14 -1 -22 0 -8 -4 -15 -9 -15 -5 0 -8 11 -8
25 0 14 4 24 9 23 5 -2 9 -7 9 -11z m-326 -8 c10 -16 -1 -22 -26 -14 -17 6
-19 9 -8 16 19 12 26 11 34 -2z m-195 -19 c0 -5 -4 -12 -10 -15 -5 -3 -10 -2
-10 2 0 5 -18 7 -40 5 -24 -3 -40 0 -40 6 0 6 17 12 38 14 42 4 62 0 62 -12z
m50 5 c0 -8 -4 -15 -9 -15 -13 0 -22 16 -14 24 11 11 23 6 23 -9z m-491 -21
c12 -15 21 -38 21 -52 l0 -25 -25 27 c-27 29 -40 34 -31 10 3 -8 2 -13 -3 -10
-17 11 -193 17 -186 7 8 -15 -20 -4 -75 28 l-45 26 155 5 c85 3 158 7 162 8 4
1 16 -10 27 -24z m139 13 c8 -10 2 -17 -29 -30 -21 -9 -39 -24 -39 -32 0 -8
-3 -15 -7 -15 -13 1 -54 71 -47 81 8 14 110 11 122 -4z m82 3 c0 -5 -7 -10
-15 -10 -8 0 -18 0 -22 -1 -4 0 -9 4 -11 10 -2 6 8 11 22 11 14 0 26 -4 26
-10z m-581 -30 c17 -12 31 -24 31 -26 0 -10 -65 8 -81 22 -8 8 -29 14 -45 14
-21 0 -25 3 -15 9 23 14 77 5 110 -19z m2678 4 c-3 -3 -12 -4 -19 -1 -8 3 -5
6 6 6 11 1 17 -2 13 -5z m7156 -1 c-29 -2 -77 -2 -105 0 -29 2 -6 3 52 3 58 0
81 -1 53 -3z m-6993 -19 c0 -14 -3 -14 -15 -4 -8 7 -15 14 -15 16 0 2 7 4 15
4 8 0 15 -7 15 -16z m473 9 c-7 -2 -19 -2 -25 0 -7 3 -2 5 12 5 14 0 19 -2 13
-5z m4214 -25 c-3 -8 -6 -5 -6 6 -1 11 2 17 5 13 3 -3 4 -12 1 -19z m-4053 3
c8 -12 -20 -22 -39 -15 -19 8 -9 24 15 24 10 0 21 -4 24 -9z m2354 2 c-10 -2
-28 -2 -40 0 -13 2 -5 4 17 4 22 1 32 -1 23 -4z m-155 -10 c-7 -2 -21 -2 -30
0 -10 3 -4 5 12 5 17 0 24 -2 18 -5z m-124 -7 c-4 -4 -147 -16 -366 -32 -57
-4 -93 -2 -93 3 0 6 79 14 183 20 237 12 281 14 276 9z m-409 -61 c0 -9 -9
-15 -22 -14 -17 1 -19 2 -5 6 9 2 17 9 17 14 0 5 2 9 5 9 3 0 5 -7 5 -15z
m2550 -30 c-7 -8 -17 -15 -22 -15 -11 0 14 29 26 30 5 0 3 -7 -4 -15z m-50
-45 c0 -5 -5 -10 -11 -10 -5 0 -7 5 -4 10 3 6 8 10 11 10 2 0 4 -4 4 -10z
m-9900 -170 c-20 -13 -83 -13 -75 0 3 6 25 10 48 10 31 0 38 -3 27 -10z
m11020 -376 c25 -82 27 -162 4 -171 -9 -3 -37 -2 -63 3 -46 9 -46 9 -56 61
-10 50 -25 81 -25 52 -1 -10 -4 -9 -11 4 -11 19 -3 41 12 32 5 -4 9 5 9 18 0
35 32 56 102 66 4 1 16 -29 28 -65z m-2886 -576 c-3 -131 -6 -155 -21 -167
-17 -13 -17 -13 0 -8 11 4 17 1 17 -8 0 -8 -9 -15 -20 -15 -10 0 -24 -8 -29
-17 -10 -17 -10 -17 -11 0 0 19 -1 20 -53 8 -30 -7 -37 -6 -33 4 2 7 -4 15
-14 18 -14 3 -20 18 -25 60 -5 35 -11 54 -19 51 -10 -4 -46 96 -46 130 0 14
36 33 54 28 4 -2 19 4 33 13 14 9 45 19 70 21 25 2 51 11 60 19 8 8 20 15 28
15 11 0 13 -29 9 -152z m3498 -19 c29 -6 81 -17 115 -25 34 -8 79 -14 100 -14
21 0 67 -7 103 -15 36 -8 98 -20 138 -26 39 -7 72 -16 72 -21 0 -4 -7 -8 -16
-8 -8 0 -12 -4 -9 -10 3 -5 18 -10 33 -10 39 0 72 -11 72 -22 0 -6 -8 -8 -19
-5 -10 2 -26 0 -37 -6 -17 -10 -17 -11 1 -18 11 -4 -38 -7 -110 -6 -71 0 -152
-5 -180 -11 -27 -7 -70 -16 -95 -21 l-45 -8 35 -11 c53 -17 -87 -5 -224 19
-60 10 -128 19 -150 19 -23 0 -52 3 -65 7 -23 6 -23 7 -5 14 38 14 -14 23 -56
9 -47 -15 -164 -8 -197 13 -7 5 -17 6 -22 2 -5 -3 -15 1 -23 8 -7 8 -31 17
-53 21 -106 20 -93 52 37 89 51 15 109 31 128 36 50 13 408 13 472 0z m712
-180 c-3 -5 -20 -8 -37 -8 -24 1 -26 3 -9 6 12 2 22 8 22 13 0 5 7 7 15 4 8
-4 12 -10 9 -15z m-3466 -566 c96 -7 110 -23 20 -23 l-63 -1 38 -13 c28 -10
48 -11 74 -4 19 5 37 7 41 4 3 -3 -2 -6 -11 -6 -9 0 -17 -4 -17 -10 0 -5 9
-10 21 -10 11 0 30 -5 41 -11 12 -7 18 -7 14 -1 -4 7 3 7 21 1 59 -18 190 -51
226 -56 20 -3 40 -9 43 -14 3 -5 23 -9 45 -9 26 0 42 -5 45 -15 4 -10 21 -16
48 -17 36 -1 37 -2 9 -5 -53 -7 -43 -33 13 -33 25 0 43 -4 39 -9 -3 -5 5 -11
17 -13 13 -2 22 -6 21 -10 -2 -5 -3 -19 -3 -33 0 -22 -3 -24 -30 -18 -19 3
-30 1 -30 -6 0 -6 5 -11 12 -11 8 0 9 -3 2 -10 -12 -12 -74 -2 -74 11 0 5 -6
6 -14 3 -11 -4 -13 0 -9 18 6 20 4 21 -10 10 -8 -7 -21 -12 -29 -11 -7 1 -20
1 -28 0 -13 -1 -13 -2 0 -11 9 -6 10 -10 3 -10 -6 0 -15 5 -18 10 -11 17 -33
11 -40 -11 -4 -13 -10 -17 -14 -11 -11 19 -94 -11 -108 -39 -10 -18 -13 -20
-13 -6 0 19 -25 23 -36 5 -5 -7 -11 -3 -17 13 -10 24 -11 24 -14 2 -3 -14 -16
-26 -39 -33 -33 -11 -47 -30 -22 -30 9 0 9 -3 1 -11 -12 -12 -37 -3 -28 11 3
4 -8 10 -24 12 -23 3 -27 1 -23 -14 3 -13 -1 -18 -14 -18 -16 0 -17 -2 -4 -10
13 -8 12 -10 -5 -11 -46 -4 -62 -4 -108 2 -26 3 -50 2 -53 -2 -2 -4 -32 -8
-65 -8 -52 0 -62 3 -66 20 -3 10 -11 19 -19 19 -7 0 -18 9 -24 20 -12 23 -32
18 -23 -5 3 -8 0 -15 -6 -15 -6 0 -11 -6 -11 -14 0 -11 -7 -11 -42 1 -24 8
-47 18 -53 23 -6 5 -30 10 -53 13 -24 2 -48 9 -54 15 -9 9 2 10 40 5 36 -4 52
-2 52 6 0 6 -3 11 -7 12 -5 0 -17 3 -28 5 -11 2 -37 7 -57 10 -21 3 -43 12
-49 20 -17 21 -56 17 -62 -6 -6 -22 3 -26 19 -10 6 6 10 3 10 -10 0 -14 -7
-20 -23 -20 -17 0 -23 6 -23 22 0 12 -12 33 -27 45 -29 25 -39 28 -48 13 -3
-5 0 -10 8 -10 8 0 17 -9 20 -21 3 -12 10 -18 16 -14 6 3 11 2 11 -3 0 -16
-36 -20 -55 -6 -10 8 -29 14 -41 14 -29 0 -86 24 -77 33 3 4 2 7 -3 7 -6 0
-15 -5 -22 -12 -9 -9 -12 -9 -12 2 0 11 -2 12 -8 3 -6 -10 -16 -8 -42 6 -19
10 -41 16 -49 13 -8 -2 -18 3 -23 11 -5 10 -15 14 -25 10 -9 -4 -14 -2 -10 3
4 6 -6 9 -24 6 -31 -5 -41 14 -11 21 14 3 13 6 -8 14 l-25 11 27 12 c15 7 34
23 42 35 18 27 88 51 322 111 174 45 185 47 379 54 110 3 211 7 225 8 14 1 62
-1 108 -5z m726 -248 c-4 -8 -11 -15 -16 -15 -6 0 -5 6 2 15 7 8 14 15 16 15
2 0 1 -7 -2 -15z m-1684 -65 c0 -5 -7 -10 -16 -10 -8 0 -12 5 -9 10 3 6 10 10
16 10 5 0 9 -4 9 -10z m125 -30 c3 -5 2 -10 -4 -10 -5 0 -13 5 -16 10 -3 6 -2
10 4 10 5 0 13 -4 16 -10z m1390 0 c4 -6 -11 -10 -37 -9 -36 1 -39 2 -18 9 36
11 48 11 55 0z m-1120 -48 c-22 -5 -27 1 -19 23 7 17 8 17 21 -1 12 -17 12
-19 -2 -22z m-348 -4 c-3 -8 -6 -5 -6 6 -1 11 2 17 5 13 3 -3 4 -12 1 -19z
m1309 2 c13 0 26 5 29 10 8 12 55 13 55 1 0 -12 -93 -25 -120 -16 -11 3 -17
11 -14 17 4 6 10 6 17 -1 6 -6 21 -11 33 -11z m-1108 -66 c-3 -14 -5 -12 -10
9 -3 19 -2 25 4 19 6 -6 8 -18 6 -28z"/>
<path d="M3366 9107 c3 -10 9 -15 12 -12 3 3 0 11 -7 18 -10 9 -11 8 -5 -6z"/>
<path d="M6447 9168 c-4 -15 -1 -17 21 -12 50 12 57 21 19 26 -28 3 -37 0 -40
-14z"/>
<path d="M6510 8943 c0 -4 5 -15 10 -23 8 -13 10 -13 10 2 0 9 -4 20 -10 23
-5 3 -10 3 -10 -2z"/>
<path d="M6503 8809 c-39 -11 -40 -15 -12 -29 16 -9 25 -8 40 6 35 32 27 39
-28 23z"/>
<path d="M6677 8935 c-21 -7 -42 -16 -45 -20 -11 -11 60 6 88 21 32 17 6 17
-43 -1z"/>
<path d="M5475 9190 c-3 -6 1 -7 9 -4 9 3 16 2 16 -4 0 -5 7 -12 15 -16 10 -4
15 1 15 14 0 15 -7 20 -24 20 -14 0 -28 -4 -31 -10z"/>
<path d="M6087 8965 c-27 -7 -51 -16 -55 -19 -12 -12 45 -4 93 14 58 21 33 24
-38 5z"/>
<path d="M6000 8871 c0 -5 9 -7 20 -4 11 3 20 7 20 9 0 2 -9 4 -20 4 -11 0
-20 -4 -20 -9z"/>
<path d="M6120 8830 c-12 -8 -9 -10 12 -10 15 0 30 5 33 10 8 13 -25 13 -45 0z"/>
<path d="M6113 8773 c9 -2 23 -2 30 0 6 3 -1 5 -18 5 -16 0 -22 -2 -12 -5z"/>
<path d="M9790 8990 c0 -5 5 -10 10 -10 6 0 10 5 10 10 0 6 -4 10 -10 10 -5 0
-10 -4 -10 -10z"/>
<path d="M9466 9131 l-29 -6 37 -17 c43 -21 66 -24 49 -7 -6 6 -9 18 -6 25 5
15 -3 16 -51 5z"/>
<path d="M9290 9080 c-13 -9 -13 -10 0 -9 8 0 24 4 35 9 l20 9 -20 0 c-11 0
-27 -4 -35 -9z"/>
<path d="M9298 9053 c6 -2 18 -2 25 0 6 3 1 5 -13 5 -14 0 -19 -2 -12 -5z"/>
<path d="M9470 9050 c0 -5 9 -10 21 -10 11 0 17 5 14 10 -3 6 -13 10 -21 10
-8 0 -14 -4 -14 -10z"/>
<path d="M9330 8980 c-22 -6 -16 -11 54 -44 64 -29 85 -35 105 -27 l26 9 -25
10 c-14 5 -50 21 -80 34 -36 16 -63 22 -80 18z"/>
<path d="M7500 9101 c0 -11 31 -24 39 -16 3 3 -1 10 -9 15 -19 12 -30 12 -30
1z"/>
<path d="M7628 9053 c7 -3 16 -2 19 1 4 3 -2 6 -13 5 -11 0 -14 -3 -6 -6z"/>
<path d="M8610 8903 c-16 -6 -30 -23 -30 -37 0 -5 7 -3 15 4 12 10 15 10 15
-2 0 -8 7 -15 15 -15 18 0 20 13 3 21 -10 5 -10 7 0 12 13 6 17 25 5 23 -5 0
-15 -3 -23 -6z"/>
<path d="M4400 8770 c-13 -8 -12 -10 3 -10 9 0 17 5 17 10 0 12 -1 12 -20 0z"/>
<path d="M4238 8788 c-12 -7 -3 -12 16 -9 5 1 13 -4 17 -11 6 -9 9 -7 9 8 0
21 -19 27 -42 12z"/>
<path d="M4927 7883 c-12 -11 -8 -23 8 -23 8 0 15 7 15 15 0 16 -12 20 -23 8z"/>
<path d="M6248 7533 c7 -3 16 -2 19 1 4 3 -2 6 -13 5 -11 0 -14 -3 -6 -6z"/>
<path d="M7222 6669 c2 -6 8 -10 13 -10 5 0 11 4 13 10 2 6 -4 11 -13 11 -9 0
-15 -5 -13 -11z"/>
<path d="M7298 6643 c7 -3 16 -2 19 1 4 3 -2 6 -13 5 -11 0 -14 -3 -6 -6z"/>
<path d="M6008 5603 c7 -3 16 -2 19 1 4 3 -2 6 -13 5 -11 0 -14 -3 -6 -6z"/>
<path d="M12290 5730 c0 -5 5 -10 11 -10 5 0 7 5 4 10 -3 6 -8 10 -11 10 -2 0
-4 -4 -4 -10z"/>
<path d="M3650 4539 c0 -5 5 -7 10 -4 6 3 10 8 10 11 0 2 -4 4 -10 4 -5 0 -10
-5 -10 -11z"/>
<path d="M3818 4513 c7 -3 16 -2 19 1 4 3 -2 6 -13 5 -11 0 -14 -3 -6 -6z"/>
<path d="M3596 4482 c-11 -11 -6 -24 8 -19 7 3 19 0 25 -6 8 -8 11 -7 11 5 0
16 -34 31 -44 20z"/>
<path d="M3797 4474 c-13 -13 -7 -24 16 -33 14 -5 25 -4 29 3 12 18 9 31 -4
18 -9 -9 -14 -8 -22 4 -7 8 -15 12 -19 8z"/>
<path d="M3792 4389 c2 -7 16 -13 32 -15 36 -4 29 18 -8 23 -18 3 -27 0 -24
-8z"/>
<path d="M3450 4380 c-12 -8 -10 -10 8 -10 13 0 20 4 17 10 -7 12 -6 12 -25 0z"/>
<path d="M3584 4351 c3 -5 15 -7 26 -4 28 7 25 13 -6 13 -14 0 -23 -4 -20 -9z"/>
<path d="M3788 4323 c13 -3 26 -11 29 -19 8 -21 23 -17 23 6 0 17 -6 20 -37
19 -25 -1 -30 -3 -15 -6z"/>
<path d="M3584 4268 c3 -7 9 -21 12 -30 4 -10 13 -18 21 -18 13 0 13 3 3 15
-10 12 -10 15 1 15 9 1 8 5 -5 15 -24 18 -40 19 -32 3z"/>
<path d="M3785 4260 c3 -5 15 -10 26 -10 10 0 19 5 19 10 0 6 -12 10 -26 10
-14 0 -23 -4 -19 -10z"/>
<path d="M3665 4250 c3 -5 8 -10 11 -10 2 0 4 5 4 10 0 6 -5 10 -11 10 -5 0
-7 -4 -4 -10z"/>
<path d="M3591 4188 c-4 -11 -11 -19 -16 -18 -5 1 -11 -2 -12 -7 -4 -12 67
-14 102 -4 17 5 22 10 12 10 -13 1 -17 6 -12 20 5 16 1 19 -30 19 -27 0 -38
-5 -44 -20z m54 -8 c-3 -5 -15 -10 -26 -10 -10 0 -19 5 -19 10 0 6 12 10 26
10 14 0 23 -4 19 -10z"/>
<path d="M3791 4176 c-9 -10 -7 -17 6 -27 9 -8 14 -9 10 -3 -4 7 2 14 16 18
18 5 20 8 7 16 -20 13 -25 12 -39 -4z"/>
<path d="M3418 4158 c8 -8 17 -8 34 0 22 10 21 11 -11 11 -27 1 -32 -2 -23
-11z"/>
<path d="M3805 4110 c-3 -5 -1 -10 4 -10 6 0 11 5 11 10 0 6 -2 10 -4 10 -3 0
-8 -4 -11 -10z"/>
<path d="M3805 4080 c3 -5 10 -10 16 -10 5 0 9 5 9 10 0 6 -7 10 -16 10 -8 0
-12 -4 -9 -10z"/>
<path d="M3750 4066 c0 -20 11 -25 35 -15 17 6 17 8 3 8 -10 1 -18 6 -18 11 0
6 -4 10 -10 10 -5 0 -10 -6 -10 -14z"/>
<path d="M3420 4059 c0 -5 5 -7 10 -4 6 3 10 8 10 11 0 2 -4 4 -10 4 -5 0 -10
-5 -10 -11z"/>
<path d="M3918 4003 c7 -3 16 -2 19 1 4 3 -2 6 -13 5 -11 0 -14 -3 -6 -6z"/>
<path d="M4105 3970 c-4 -6 -3 -16 3 -22 13 -13 23 4 13 21 -7 10 -10 10 -16
1z"/>
<path d="M12130 5531 c0 -6 4 -13 10 -16 6 -3 7 1 4 9 -7 18 -14 21 -14 7z"/>
<path d="M12160 5521 c0 -5 5 -13 10 -16 6 -3 10 -2 10 4 0 5 -4 13 -10 16 -5
3 -10 2 -10 -4z"/>
<path d="M12190 5518 c0 -4 12 -8 27 -8 14 0 23 3 19 7 -10 10 -46 11 -46 1z"/>
<path d="M12220 5481 c0 -7 -4 -9 -10 -6 -11 7 -12 -17 -1 -55 6 -22 8 -19 14
20 3 24 4 47 1 49 -2 2 -4 -1 -4 -8z"/>
<path d="M6645 5340 c3 -5 10 -10 16 -10 5 0 9 5 9 10 0 6 -7 10 -16 10 -8 0
-12 -4 -9 -10z"/>
<path d="M7218 5223 c7 -3 16 -2 19 1 4 3 -2 6 -13 5 -11 0 -14 -3 -6 -6z"/>
<path d="M6955 5180 c3 -5 12 -7 20 -3 21 7 19 13 -6 13 -11 0 -18 -4 -14 -10z"/>
<path d="M7173 5163 c15 -2 39 -2 55 0 15 2 2 4 -28 4 -30 0 -43 -2 -27 -4z"/>
<path d="M6927 5153 c-2 -5 -1 -17 3 -27 6 -19 7 -19 12 2 6 21 -6 40 -15 25z"/>
<path d="M6790 5141 c0 -17 18 -21 24 -6 3 9 0 15 -9 15 -8 0 -15 -4 -15 -9z"/>
<path d="M6968 5143 c6 -2 18 -2 25 0 6 3 1 5 -13 5 -14 0 -19 -2 -12 -5z"/>
<path d="M7138 5133 c6 -2 18 -2 25 0 6 3 1 5 -13 5 -14 0 -19 -2 -12 -5z"/>
<path d="M7083 5113 c15 -2 37 -2 50 0 12 2 0 4 -28 4 -27 0 -38 -2 -22 -4z"/>
<path d="M6870 5082 c33 -5 33 -5 10 -12 -21 -6 -19 -7 18 -11 35 -4 42 -2 42
13 0 15 -8 18 -52 16 -43 -1 -47 -2 -18 -6z"/>
<path d="M7221 5039 c18 -11 59 -12 59 -1 0 4 -16 9 -37 9 -24 1 -32 -2 -22
-8z"/>
<path d="M6924 5028 c-3 -4 39 -7 93 -7 106 2 100 6 -15 11 -41 2 -76 0 -78
-4z"/>
<path d="M7295 5030 c4 -6 -5 -10 -21 -10 -15 0 -25 -3 -22 -6 10 -10 84 -13
99 -3 12 7 12 9 -1 10 -8 1 -1 5 15 9 26 6 22 8 -23 9 -33 1 -51 -3 -47 -9z"/>
<path d="M7128 5023 c7 -3 16 -2 19 1 4 3 -2 6 -13 5 -11 0 -14 -3 -6 -6z"/>
<path d="M7168 5013 c7 -3 16 -2 19 1 4 3 -2 6 -13 5 -11 0 -14 -3 -6 -6z"/>
<path d="M7370 5010 c0 -5 7 -10 16 -10 8 0 12 5 9 10 -3 6 -10 10 -16 10 -5
0 -9 -4 -9 -10z"/>
<path d="M7485 4940 c28 -12 175 -12 175 0 0 6 -39 10 -97 9 -64 0 -91 -3 -78
-9z"/>
<path d="M7498 4763 c7 -3 16 -2 19 1 4 3 -2 6 -13 5 -11 0 -14 -3 -6 -6z"/>
<path d="M7591 4714 c0 -11 3 -14 6 -6 3 7 2 16 -1 19 -3 4 -6 -2 -5 -13z"/>
<path d="M7610 4631 c0 -14 -2 -14 -10 -1 -8 12 -10 11 -10 -7 0 -24 22 -43
28 -25 2 7 8 10 13 7 5 -4 8 5 7 18 -2 26 -28 33 -28 8z"/>
<path d="M7526 4622 c-3 -6 -1 -14 5 -17 15 -10 25 3 12 16 -7 7 -13 7 -17 1z"/>
<path d="M7603 4503 c9 -2 25 -2 35 0 9 3 1 5 -18 5 -19 0 -27 -2 -17 -5z"/>
<path d="M7630 4480 c0 -5 5 -10 10 -10 6 0 10 5 10 10 0 6 -4 10 -10 10 -5 0
-10 -4 -10 -10z"/>
<path d="M7495 4450 c-4 -6 5 -10 19 -10 14 0 26 5 26 10 0 6 -9 10 -19 10
-11 0 -23 -4 -26 -10z"/>
<path d="M7622 4430 c0 -14 2 -19 5 -12 2 6 2 18 0 25 -3 6 -5 1 -5 -13z"/>
<path d="M7498 4413 c7 -3 16 -2 19 1 4 3 -2 6 -13 5 -11 0 -14 -3 -6 -6z"/>
<path d="M6343 5293 c9 -2 23 -2 30 0 6 3 -1 5 -18 5 -16 0 -22 -2 -12 -5z"/>
<path d="M6313 5203 c9 -2 25 -2 35 0 9 3 1 5 -18 5 -19 0 -27 -2 -17 -5z"/>
<path d="M6304 5118 c-3 -4 11 -8 30 -8 20 0 36 2 36 4 0 8 -61 12 -66 4z"/>
<path d="M6168 5103 c6 -2 18 -2 25 0 6 3 1 5 -13 5 -14 0 -19 -2 -12 -5z"/>
<path d="M6360 5060 c0 -5 5 -10 11 -10 5 0 7 5 4 10 -3 6 -8 10 -11 10 -2 0
-4 -4 -4 -10z"/>
<path d="M6168 5023 c6 -2 18 -2 25 0 6 3 1 5 -13 5 -14 0 -19 -2 -12 -5z"/>
<path d="M6128 5013 c7 -3 16 -2 19 1 4 3 -2 6 -13 5 -11 0 -14 -3 -6 -6z"/>
<path d="M4997 5323 c10 -30 18 -42 22 -32 12 30 38 59 62 68 20 8 13 10 -38
10 l-62 1 16 -47z"/>
<path d="M5245 5360 c-18 -7 -18 -8 7 -15 15 -4 29 -14 31 -23 3 -10 5 -2 6
16 1 33 -7 37 -44 22z"/>
<path d="M5282 5275 c0 -16 2 -22 5 -12 2 9 2 23 0 30 -3 6 -5 -1 -5 -18z"/>
<path d="M5021 5229 c0 -13 4 -33 9 -44 7 -14 8 -8 3 20 -7 46 -13 59 -12 24z"/>
<path d="M5040 5137 c0 -13 3 -17 8 -11 4 6 14 13 22 16 10 3 8 6 -8 10 -18 5
-22 2 -22 -15z"/>
<path d="M5095 5150 c-3 -5 1 -10 10 -10 9 0 13 5 10 10 -3 6 -8 10 -10 10 -2
0 -7 -4 -10 -10z"/>
<path d="M5283 5090 c0 -30 2 -43 4 -27 2 15 2 39 0 55 -2 15 -4 2 -4 -28z"/>
<path d="M5057 5088 c2 -5 13 -8 24 -8 16 0 19 -7 19 -51 0 -27 -4 -48 -9 -45
-14 9 -20 -29 -8 -50 6 -10 11 -50 12 -89 1 -54 -2 -73 -14 -82 -14 -11 -14
-12 2 -13 21 0 22 -26 1 -38 -14 -8 -14 -10 2 -16 17 -7 15 -9 -11 -21 -30
-13 -30 -13 -5 -15 14 -1 19 -4 12 -7 -6 -2 -10 -8 -7 -13 10 -16 13 -76 5
-90 -6 -10 -38 -14 -115 -16 -140 -3 -149 -14 -12 -14 59 0 107 -3 107 -8 0
-18 -40 -28 -112 -27 -68 0 -77 -2 -82 -19 -3 -11 -3 -22 -1 -24 4 -4 150 -4
163 1 4 1 17 -8 30 -20 l22 -23 -22 -1 c-13 -1 -65 -1 -115 -1 -54 1 -93 -3
-93 -8 0 -6 7 -10 15 -10 8 0 15 -7 15 -16 0 -12 7 -14 30 -9 19 4 30 3 30 -4
0 -6 -21 -12 -47 -12 -27 -1 -40 -3 -30 -6 9 -2 15 -8 12 -13 -8 -13 36 -23
48 -11 12 12 41 15 34 4 -3 -5 15 -6 40 -4 25 2 42 6 37 10 -20 14 -13 31 13
31 20 0 24 -3 14 -9 -9 -6 -11 -15 -6 -27 12 -28 12 -64 0 -65 -5 0 3 -5 19
-10 34 -10 43 -5 29 13 -6 7 -8 22 -6 33 2 11 6 178 9 370 2 193 6 371 7 397
l3 46 -32 -1 c-18 -1 -30 -5 -27 -9z m23 -617 c0 -16 -6 -19 -42 -15 -57 5
-61 14 -7 15 34 0 39 2 24 9 -19 8 -19 9 3 9 15 1 22 -5 22 -18z m-147 -8 c-7
-2 -19 -2 -25 0 -7 3 -2 5 12 5 14 0 19 -2 13 -5z m20 -90 c-7 -2 -19 -2 -25
0 -7 3 -2 5 12 5 14 0 19 -2 13 -5z m73 -2 c-7 -11 -46 -21 -46 -12 0 13 13
21 32 21 11 0 17 -4 14 -9z"/>
<path d="M5070 5021 c0 -6 5 -13 10 -16 6 -3 10 1 10 9 0 9 -4 16 -10 16 -5 0
-10 -4 -10 -9z"/>
<path d="M5283 4990 c0 -25 2 -35 4 -22 2 12 2 32 0 45 -2 12 -4 2 -4 -23z"/>
<path d="M4965 4950 c-36 -6 -32 -7 28 -9 39 0 67 3 67 9 0 11 -34 11 -95 0z"/>
<path d="M5165 4929 c28 -5 62 -9 78 -9 19 0 30 -6 37 -22 8 -22 9 -21 9 7 l1
30 -88 1 c-79 1 -83 1 -37 -7z"/>
<path d="M4918 4833 c6 -2 18 -2 25 0 6 3 1 5 -13 5 -14 0 -19 -2 -12 -5z"/>
<path d="M4923 4783 c15 -2 39 -2 55 0 15 2 2 4 -28 4 -30 0 -43 -2 -27 -4z"/>
<path d="M4888 4663 c7 -3 16 -2 19 1 4 3 -2 6 -13 5 -11 0 -14 -3 -6 -6z"/>
<path d="M4880 4640 c-13 -8 -12 -10 3 -10 9 0 17 5 17 10 0 12 -1 12 -20 0z"/>
<path d="M4940 4640 c0 -5 5 -10 10 -10 6 0 10 5 10 10 0 6 -4 10 -10 10 -5 0
-10 -4 -10 -10z"/>
<path d="M4898 4583 c12 -2 32 -2 45 0 12 2 2 4 -23 4 -25 0 -35 -2 -22 -4z"/>
<path d="M5271 4574 c0 -11 3 -14 6 -6 3 7 2 16 -1 19 -3 4 -6 -2 -5 -13z"/>
<path d="M4875 4560 c-3 -5 1 -10 10 -10 9 0 13 5 10 10 -3 6 -8 10 -10 10 -2
0 -7 -4 -10 -10z"/>
<path d="M4863 4274 c3 -3 22 -6 42 -6 20 0 39 3 42 6 4 3 -15 6 -42 6 -27 0
-46 -3 -42 -6z"/>
<path d="M4993 4273 c9 -2 25 -2 35 0 9 3 1 5 -18 5 -19 0 -27 -2 -17 -5z"/>
<path d="M4888 4223 c12 -2 30 -2 40 0 9 3 -1 5 -23 4 -22 0 -30 -2 -17 -4z"/>
<path d="M8492 5185 c0 -16 2 -22 5 -12 2 9 2 23 0 30 -3 6 -5 -1 -5 -18z"/>
<path d="M8385 4990 c3 -5 8 -10 11 -10 2 0 4 5 4 10 0 6 -5 10 -11 10 -5 0
-7 -4 -4 -10z"/>
<path d="M8340 4810 c0 -5 9 -14 19 -19 14 -8 20 -7 24 3 3 8 -1 17 -9 20 -23
9 -34 7 -34 -4z"/>
<path d="M3300 4890 c0 -11 5 -20 10 -20 6 0 10 9 10 20 0 11 -4 20 -10 20 -5
0 -10 -9 -10 -20z"/>
<path d="M12183 5283 c-20 -7 -15 -19 7 -19 11 0 20 4 20 8 0 10 -13 16 -27
11z"/>
<path d="M12220 5281 c0 -5 5 -13 10 -16 6 -3 10 -2 10 4 0 5 -4 13 -10 16 -5
3 -10 2 -10 -4z"/>
<path d="M11405 5230 c3 -5 8 -10 11 -10 2 0 4 5 4 10 0 6 -5 10 -11 10 -5 0
-7 -4 -4 -10z"/>
<path d="M11631 4973 c-1 -17 4 -35 9 -38 12 -7 12 22 0 50 -7 17 -9 15 -9
-12z"/>
<path d="M6080 4890 c0 -5 7 -7 15 -4 8 4 15 8 15 10 0 2 -7 4 -15 4 -8 0 -15
-4 -15 -10z"/>
<path d="M7200 4930 c-13 -9 -13 -10 0 -9 8 0 24 4 35 9 l20 9 -20 0 c-11 0
-27 -4 -35 -9z"/>
<path d="M8370 4400 c0 -5 6 -10 14 -10 8 0 18 5 21 10 3 6 -3 10 -14 10 -12
0 -21 -4 -21 -10z"/>
<path d="M8378 4373 c7 -3 16 -2 19 1 4 3 -2 6 -13 5 -11 0 -14 -3 -6 -6z"/>
<path d="M8485 4270 c-3 -5 1 -10 9 -10 9 0 16 5 16 10 0 6 -4 10 -9 10 -6 0
-13 -4 -16 -10z"/>
<path d="M8393 4263 c9 -2 23 -2 30 0 6 3 -1 5 -18 5 -16 0 -22 -2 -12 -5z"/>
<path d="M8440 4230 c0 -5 -13 -10 -29 -10 -25 0 -28 -3 -23 -22 3 -12 7 -17
10 -10 2 6 20 12 40 13 21 0 46 4 57 9 19 8 19 9 -2 9 -12 1 -25 6 -28 11 -3
6 -10 10 -16 10 -5 0 -9 -4 -9 -10z"/>
<path d="M10035 4510 c-3 -5 -1 -10 4 -10 6 0 11 5 11 10 0 6 -2 10 -4 10 -3
0 -8 -4 -11 -10z"/>
<path d="M6048 4073 c6 -2 18 -2 25 0 6 3 1 5 -13 5 -14 0 -19 -2 -12 -5z"/>
<path d="M6158 3913 c12 -2 30 -2 40 0 9 3 -1 5 -23 4 -22 0 -30 -2 -17 -4z"/>
<path d="M6380 3838 c0 -17 3 -19 12 -10 7 7 38 12 69 12 32 0 61 5 64 10 4 6
-22 10 -69 10 -72 0 -76 -1 -76 -22z"/>
<path d="M3675 3950 c-3 -5 -1 -10 4 -10 6 0 11 5 11 10 0 6 -2 10 -4 10 -3 0
-8 -4 -11 -10z"/>
<path d="M12248 2413 c6 -2 18 -2 25 0 6 3 1 5 -13 5 -14 0 -19 -2 -12 -5z"/>
<path d="M8225 1570 c3 -5 11 -10 16 -10 6 0 7 5 4 10 -3 6 -11 10 -16 10 -6
0 -7 -4 -4 -10z"/>
<path d="M9613 1563 c9 -2 23 -2 30 0 6 3 -1 5 -18 5 -16 0 -22 -2 -12 -5z"/>
<path d="M8360 1550 c0 -5 5 -10 10 -10 6 0 10 5 10 10 0 6 -4 10 -10 10 -5 0
-10 -4 -10 -10z"/>
<path d="M8460 1550 c0 -5 5 -10 11 -10 5 0 7 5 4 10 -3 6 -8 10 -11 10 -2 0
-4 -4 -4 -10z"/>
<path d="M8260 1526 c0 -2 7 -9 15 -16 12 -10 15 -10 15 4 0 9 -7 16 -15 16
-8 0 -15 -2 -15 -4z"/>
<path d="M8475 1510 c3 -5 10 -10 16 -10 5 0 9 5 9 10 0 6 -7 10 -16 10 -8 0
-12 -4 -9 -10z"/>
<path d="M8650 1430 c0 -5 9 -10 19 -10 11 0 23 5 26 10 4 6 -5 10 -19 10 -14
0 -26 -4 -26 -10z"/>
<path d="M9050 1426 c0 -9 30 -14 35 -6 4 6 -3 10 -14 10 -12 0 -21 -2 -21 -4z"/>
</g>
</svg>
